<?xml version="1.0" encoding="utf-8"?>
<!-- Generator: Adobe Illustrator 23.0.1, SVG Export Plug-In . SVG Version: 6.00 Build 0)  -->
<svg version="1.1" id="Layer_1" xmlns="http://www.w3.org/2000/svg" xmlns:xlink="http://www.w3.org/1999/xlink" x="0px" y="0px"
	 viewBox="0 0 128 112" style="enable-background:new 0 0 128 112;" xml:space="preserve">
<style type="text/css">
	.st0{fill:#FFFFFF;}
</style>
<path class="st0" d="M60,45.2c1.1,0,2-0.9,2-2V23.9l1.4,1.9c0.4,0.5,1,0.8,1.6,0.8c0.4,0,0.8-0.1,1.2-0.4c0.9-0.6,1.1-1.9,0.5-2.8
	l-5-7c-0.4-0.5-1-0.8-1.6-0.8s-1.3,0.3-1.6,0.8l-5,7c-0.6,0.9-0.4,2.1,0.5,2.8c0.9,0.6,2.1,0.4,2.8-0.5l1.4-1.9v19.3
	C58,44.3,58.9,45.2,60,45.2z"/>
<path class="st0" d="M52.4,71c-1-0.5-2.2-0.1-2.7,0.9l-5.9,11.7l-0.4-2.4c-0.2-1.1-1.2-1.8-2.3-1.7c-1.1,0.2-1.8,1.2-1.7,2.3
	l1.3,8.6c0.1,0.6,0.5,1.2,1.1,1.5c0.3,0.1,0.6,0.2,0.9,0.2c0.3,0,0.6-0.1,0.9-0.2l7.6-3.9c1-0.5,1.4-1.7,0.9-2.7
	c-0.5-1-1.7-1.4-2.7-0.9l-2.1,1.1l5.9-11.8C53.8,72.7,53.4,71.5,52.4,71z"/>
<path class="st0" d="M63.7,89.5c-0.6,0.9-0.4,2.1,0.5,2.8l6.9,5c0.3,0.2,0.8,0.4,1.2,0.4c0.2,0,0.4,0,0.6-0.1
	c0.6-0.2,1.1-0.7,1.3-1.3l2.5-8.3c0.3-1.1-0.3-2.2-1.3-2.5c-1.1-0.3-2.2,0.3-2.5,1.3L72,89.5l-7.6-19.4c-0.4-1-1.6-1.5-2.6-1.1
	c-1,0.4-1.5,1.6-1.1,2.6l7.3,18.5l-1.5-1C65.6,88.4,64.3,88.6,63.7,89.5z"/>
<path class="st0" d="M68.4,46.5c0.4,0.7,1.1,1.1,1.8,1.1c0.3,0,0.6-0.1,0.9-0.2L88,38.8L86.9,41c-0.5,1-0.1,2.2,0.9,2.7
	c0.3,0.1,0.6,0.2,0.9,0.2c0.7,0,1.4-0.4,1.8-1.1l3.9-7.7c0.3-0.6,0.3-1.2,0-1.8c-0.3-0.6-0.8-1-1.4-1.1l-8.3-1.5
	c-1.1-0.2-2.1,0.5-2.3,1.6c-0.2,1.1,0.5,2.1,1.6,2.3l2.4,0.4l-17,8.7C68.3,44.3,67.9,45.5,68.4,46.5z"/>
<path class="st0" d="M47.9,58.2c-0.3-1.1-1.4-1.7-2.5-1.3l-22.2,6.6l1.5-2c0.7-0.9,0.5-2.1-0.4-2.8c-0.9-0.7-2.1-0.5-2.8,0.4
	l-5.2,6.8c-0.4,0.5-0.5,1.2-0.3,1.8c0.2,0.6,0.6,1.1,1.2,1.3l7.9,3c0.2,0.1,0.5,0.1,0.7,0.1c0.8,0,1.6-0.5,1.9-1.3
	c0.4-1-0.1-2.2-1.2-2.6l-2.4-0.9l22.3-6.6C47.6,60.4,48.2,59.2,47.9,58.2z"/>
<path class="st0" d="M97.1,88.9c0.1,1.1,1,1.9,2,1.9c0,0,0.1,0,0.1,0l11.9-0.8c0.6,0,1.2-0.4,1.6-0.9c0.3-0.5,0.4-1.2,0.1-1.8
	l-4.4-10.6c-0.4-1-1.6-1.5-2.6-1.1c-1,0.4-1.5,1.6-1.1,2.6l2,4.9l-34-21.1c-0.9-0.6-2.2-0.3-2.8,0.6c-0.6,0.9-0.3,2.2,0.6,2.8
	l34.1,21.1l-5.7,0.4C97.8,86.8,97,87.8,97.1,88.9z"/>
<path class="st0" d="M42.9,35.8c1.1-0.2,1.8-1.2,1.6-2.3c-0.2-1.1-1.2-1.8-2.3-1.6l-8.3,1.5c-0.6,0.1-1.2,0.5-1.4,1.1
	c-0.3,0.6-0.3,1.2,0,1.8l3.9,7.7c0.4,0.7,1.1,1.1,1.8,1.1c0.3,0,0.6-0.1,0.9-0.2c1-0.5,1.4-1.7,0.9-2.7l-1.1-2.2l10.8,5.5
	c0.3,0.1,0.6,0.2,0.9,0.2c0.7,0,1.4-0.4,1.8-1.1c0.5-1,0.1-2.2-0.9-2.7l-10.9-5.5L42.9,35.8z"/>
<path class="st0" d="M60,65c4.4,0,8-3.6,8-8c0-4.4-3.6-8-8-8s-8,3.6-8,8C52,61.4,55.6,65,60,65z M60,53c2.2,0,4,1.8,4,4
	c0,2.2-1.8,4-4,4s-4-1.8-4-4C56,54.8,57.8,53,60,53z"/>
<path class="st0" d="M66,6c0-3.3-2.7-6-6-6s-6,2.7-6,6c0,3.3,2.7,6,6,6S66,9.3,66,6z M58,6c0-1.1,0.9-2,2-2c1.1,0,2,0.9,2,2
	c0,1.1-0.9,2-2,2C58.9,8,58,7.1,58,6z"/>
<path class="st0" d="M38,107c3.3,0,6-2.7,6-6c0-3.3-2.7-6-6-6s-6,2.7-6,6C32,104.3,34.7,107,38,107z M38,99c1.1,0,2,0.9,2,2
	c0,1.1-0.9,2-2,2s-2-0.9-2-2C36,99.9,36.9,99,38,99z"/>
<path class="st0" d="M78,112c3.3,0,6-2.7,6-6c0-3.3-2.7-6-6-6s-6,2.7-6,6C72,109.3,74.7,112,78,112z M78,104c1.1,0,2,0.9,2,2
	c0,1.1-0.9,2-2,2s-2-0.9-2-2C76,104.9,76.9,104,78,104z"/>
<path class="st0" d="M6,77.3c3.3,0,6-2.7,6-6c0-3.3-2.7-6-6-6s-6,2.7-6,6C0,74.6,2.7,77.3,6,77.3z M6,69.3c1.1,0,2,0.9,2,2
	c0,1.1-0.9,2-2,2s-2-0.9-2-2C4,70.2,4.9,69.3,6,69.3z"/>
<path class="st0" d="M18,29c0,3.3,2.7,6,6,6s6-2.7,6-6c0-3.3-2.7-6-6-6S18,25.7,18,29z M26,29c0,1.1-0.9,2-2,2s-2-0.9-2-2
	c0-1.1,0.9-2,2-2S26,27.9,26,29z"/>
<path class="st0" d="M110,29c0-3.3-2.7-6-6-6s-6,2.7-6,6c0,3.3,2.7,6,6,6S110,32.3,110,29z M102,29c0-1.1,0.9-2,2-2s2,0.9,2,2
	c0,1.1-0.9,2-2,2S102,30.1,102,29z"/>
<path class="st0" d="M122,87c-3.3,0-6,2.7-6,6c0,3.3,2.7,6,6,6s6-2.7,6-6C128,89.7,125.3,87,122,87z M122,95c-1.1,0-2-0.9-2-2
	c0-1.1,0.9-2,2-2s2,0.9,2,2C124,94.1,123.1,95,122,95z"/>
</svg>
