<?xml version="1.0" encoding="utf-8"?>
<!-- Generator: Adobe Illustrator 23.0.1, SVG Export Plug-In . SVG Version: 6.00 Build 0)  -->
<svg version="1.1"
	 id="Layer_1" xmlns:cc="http://creativecommons.org/ns#" xmlns:dc="http://purl.org/dc/elements/1.1/" xmlns:inkscape="http://www.inkscape.org/namespaces/inkscape" xmlns:rdf="http://www.w3.org/1999/02/22-rdf-syntax-ns#" xmlns:sodipodi="http://sodipodi.sourceforge.net/DTD/sodipodi-0.dtd" xmlns:svg="http://www.w3.org/2000/svg"
	 xmlns="http://www.w3.org/2000/svg" xmlns:xlink="http://www.w3.org/1999/xlink" x="0px" y="0px" viewBox="0 0 100 83.1"
	 style="enable-background:new 0 0 100 83.1;" xml:space="preserve">
<style type="text/css">
	.st0{fill-rule:evenodd;clip-rule:evenodd;fill:#E17000;}
	.st1{fill:#E17000;}
</style>
<g transform="translate(0,-952.36216)">
	<path class="st0" d="M50,952.4c4.8,7.3,9.7,14.5,14.5,21.8h-29L50,952.4z"/>
	<path class="st0" d="M29,1011.4v24H5v-24C13,1011.4,21,1011.4,29,1011.4L29,1011.4z"/>
	<path class="st1" d="M83,1011.3c-6.6,0-12,5.4-12,12.1c0,6.6,5.4,12.1,12,12.1s12-5.4,12-12.1C95,1016.8,89.6,1011.3,83,1011.3
		L83,1011.3z"/>
	<path class="st0" d="M57.6,1016.4c0.5,0,1,0.2,1.4,0.6l4.8,4.8c0.9,0.7,1.1,1.9,0.4,2.8c-0.1,0.1-0.2,0.3-0.4,0.4c0,0,0,0,0,0
		l-4.9,4.9c-0.8,0.8-2.1,0.8-2.8,0c-0.8-0.8-0.8-2.1,0-2.8c0,0,0,0,0,0l1.6-1.6H37.4c-1.1,0-2-0.9-2-2c0-1.1,0.9-2,2-2
		c0,0,0,0,0.1,0h20.3l-1.6-1.6c-0.8-0.8-0.8-2,0-2.8C56.5,1016.6,57,1016.3,57.6,1016.4L57.6,1016.4z"/>
	<path class="st0" d="M68.4,980.4c2.4,0.5,5,1.3,7.4,1.9c2.6,0.7,1.6,4.6-1,3.9l-2.2-0.6l10.1,17.6c1.4,2.3-2.2,4.4-3.5,2
		l-10.1-17.6l-0.6,2.2c-0.7,2.6-4.6,1.6-3.9-1l1.8-6.6C66.6,981.1,67.4,980.4,68.4,980.4L68.4,980.4z"/>
	<path class="st0" d="M33.4,980.4c1.5,0.1,2.4,1.7,1.6,3L24.9,1001l2.2-0.6c2.6-0.7,3.6,3.2,1,3.9c0,0-4.6,1.2-6.9,1.8
		c-1,0.3-2.2-0.6-2.5-1.4c-0.6-2.3-1.2-4.6-1.8-6.9c-0.3-1.3,0.5-2.5,1.8-2.6c1,0,1.8,0.6,2,1.5l0.6,2.2l10.1-17.6
		C32,980.7,32.7,980.4,33.4,980.4L33.4,980.4z"/>
</g>
</svg>
