<?xml version="1.0" encoding="utf-8"?>
<!-- Generator: Adobe Illustrator 23.0.1, SVG Export Plug-In . SVG Version: 6.00 Build 0)  -->
<svg version="1.1" id="Layer_1" xmlns="http://www.w3.org/2000/svg" xmlns:xlink="http://www.w3.org/1999/xlink" x="0px" y="0px"
	 viewBox="0 0 66 65" style="enable-background:new 0 0 66 65;" xml:space="preserve">
<style type="text/css">
	.st0{fill:#679F39;}
</style>
<g>
	<g>
		<path class="st0" d="M65.7,37.3L65.7,37.3c0-0.2,0-0.3-0.1-0.4l-0.1-0.1c-0.1-0.1-0.1-0.1-0.2-0.2l0,0l0,0l-15.6-8.4V10.4l0,0
			v-0.1c0-0.1,0-0.2-0.1-0.3l-0.1-0.1c-0.1-0.1-0.1-0.1-0.2-0.2l0,0l0,0l-16-8.6c-0.2-0.1-0.5-0.1-0.7,0l-16,8.6l0,0l0,0
			c-0.1,0-0.1,0.1-0.1,0.2L16.4,10c0,0.1,0,0.1-0.1,0.2c0,0.1-0.1,0.1-0.1,0.2l0,0v17.8L0.7,36.6l0,0l0,0c-0.1,0-0.1,0.1-0.2,0.2
			l-0.1,0.1c0,0.1-0.1,0.2-0.1,0.3v0.1l0,0v18.1c0,0.3,0.1,0.5,0.4,0.7l16,8.9c0.1,0,0.2,0,0.3,0s0.3,0,0.4-0.1l0,0l0,0l0,0L33,56.3
			L48.6,65c0.1,0,0.2,0,0.4,0s0.3,0,0.4-0.1l0,0l0,0l0,0l16-8.8c0.2-0.1,0.4-0.4,0.4-0.7L65.7,37.3L65.7,37.3z M2.6,37.3L17,29.5
			c12.6,6.8,9.8,5.3,14.3,7.8L17,45.2C4.6,38.4,6.9,39.6,2.6,37.3z M32.2,19.6V36c-4.8-2.6-1.9-1-14.5-8V11.6
			C22.7,14.3,19.6,12.7,32.2,19.6z M48.2,28c-12.7,7-9.7,5.4-14.5,8V19.6l14.5-7.9V28z M34.6,37.3c4.5-2.5,1.6-0.9,14.4-7.8
			l14.4,7.8L49,45.2C37.2,38.7,40.2,40.4,34.6,37.3z M33,2.6l14.4,7.8L33,18.3c-12.1-6.6-9.1-5-14.4-7.9L33,2.6z M1.8,38.5
			c3.9,2.1,1,0.6,14.5,7.9V63L1.8,55V38.5z M17.8,63V46.5l14.5-7.9V55L17.8,63z M33.8,38.5c5.9,3.3,2.9,1.6,14.5,7.9V63l-14.5-8
			V38.5z M49.7,63V46.5l14.5-7.9V55L49.7,63z"/>
	</g>
</g>
</svg>
