<?xml version="1.0" encoding="utf-8"?>
<!-- Generator: Adobe Illustrator 23.0.1, SVG Export Plug-In . SVG Version: 6.00 Build 0)  -->
<svg version="1.1" id="Layer_1" xmlns="http://www.w3.org/2000/svg" xmlns:xlink="http://www.w3.org/1999/xlink" x="0px" y="0px"
	 viewBox="0 0 64 60" style="enable-background:new 0 0 64 60;" xml:space="preserve">
<style type="text/css">
	.st0{fill:#E60028;}
</style>
<title>information-data-facts-knowledge-intelligence-click</title>
<path class="st0" d="M61,32H34c-0.6,0-1,0.4-1,1v6.5c-1.4-0.7-3.2-0.5-4.3,0.7L24,44.8V28h6c0.6,0,1-0.4,1-1V1c0-0.6-0.4-1-1-1H3
	C2.4,0,2,0.4,2,1v26c0,0.6,0.4,1,1,1h14v2.3c-1.7-0.8-3.8-0.1-4.6,1.6c-0.1,0.2-0.1,0.3-0.2,0.5c-1.7-0.9-3.8-0.3-4.7,1.3
	c-0.1,0.2-0.2,0.4-0.3,0.7c-0.6-0.3-1.3-0.5-2-0.4C3.3,34.2,2,35.8,2,37.7V54c0,0,0,0,0,0s0,0,0,0v5c0,0.6,0.4,1,1,1h20
	c0.6,0,1-0.4,1-1v-4.6l9-8.6V59c0,0.6,0.4,1,1,1h27c0.6,0,1-0.4,1-1V33C62,32.4,61.6,32,61,32z M4,26V2h25v24h-5v-1.3
	c0-0.2,0-0.5-0.1-0.7H24c0.6,0,1-0.4,1-1V5c0-0.6-0.4-1-1-1H9C8.4,4,8,4.4,8,5v18c0,0.6,0.4,1,1,1h8.1c0,0.2,0,0.3-0.1,0.5V26H4z
	 M23,6v16h-0.1c0,0-0.1-0.1-0.1-0.1c-0.1-0.1-0.2-0.2-0.3-0.2c-0.1-0.1-0.2-0.1-0.3-0.2c-0.1,0-0.1-0.1-0.2-0.1
	c-0.1-0.1-0.3-0.1-0.4-0.2c-0.1,0-0.1,0-0.2-0.1C21.2,21.1,21,21,20.8,21h0c-0.2,0-0.5,0-0.7,0c-0.2,0-0.4,0.1-0.5,0.1
	c-0.1,0-0.1,0-0.2,0c-0.1,0-0.3,0.1-0.4,0.2c-0.1,0-0.2,0.1-0.3,0.2c-0.1,0-0.1,0.1-0.2,0.2c-0.1,0.1-0.2,0.2-0.3,0.2
	c0,0,0,0-0.1,0.1s0,0,0,0H10V6H23z M22,58H4v-3h18V58z M32.4,43.6L22.6,53H4V37.7c0-0.8,0.6-1.5,1.4-1.7c0.8-0.1,1.6,0.5,1.6,1.4
	c0,0,0,0.1,0,0.1V41h2v-5.3c0-0.8,0.6-1.5,1.4-1.7c0.8-0.1,1.6,0.5,1.6,1.4c0,0,0,0.1,0,0.1V40h2v-6.3c0-0.8,0.6-1.5,1.4-1.7
	c0.7-0.1,1.4,0.4,1.6,1.1c0,0,0,0.1,0,0.1V38h2v-5h0c0,0,0-0.1,0-0.1v-8.4c0-0.3,0.1-0.6,0.3-0.9l0,0c0.1-0.1,0.2-0.2,0.3-0.3
	c0,0,0,0,0.1,0c0.1-0.1,0.2-0.1,0.2-0.1c0,0,0.1,0,0.1,0c0.1,0,0.2-0.1,0.2-0.1c0,0,0.1,0,0.1,0c0.1,0,0.2,0,0.4,0l0,0
	c0.1,0,0.2,0,0.3,0.1c0,0,0.1,0,0.1,0c0.1,0,0.1,0.1,0.2,0.1l0.1,0c0.1,0,0.1,0.1,0.2,0.2l0,0c0.1,0.1,0.1,0.1,0.1,0.2l0,0
	c0.2,0.3,0.4,0.7,0.4,1.1v22.5c0,0.6,0.5,1,1,1c0.3,0,0.5-0.1,0.7-0.3l6.3-6.3c0.6-0.6,1.5-0.7,2.2-0.2c0.3,0.3,0.5,0.7,0.6,1.1
	C32.8,42.9,32.7,43.3,32.4,43.6z M60,58H35V34h25V58z"/>
<path class="st0" d="M61,0H34c-0.6,0-1,0.4-1,1v26c0,0.6,0.4,1,1,1h27c0.6,0,1-0.4,1-1V1C62,0.4,61.6,0,61,0z M60,26H35V2h25V26z"/>
<rect x="12" y="9" class="st0" width="9" height="2"/>
<rect x="12" y="13" class="st0" width="9" height="2"/>
<rect x="12" y="17" class="st0" width="9" height="2"/>
<path class="st0" d="M43,24h10c0.6,0,1-0.4,1-1v-7c0-2.2-1.2-4.2-3.1-5.3c1.5-1.6,1.5-4.1-0.1-5.7s-4.1-1.5-5.7,0.1
	c-1.5,1.5-1.5,4,0,5.5C43.2,11.8,42,13.8,42,16v7C42,23.6,42.4,24,43,24z M48,6c1.1,0,2,0.9,2,2s-0.9,2-2,2s-2-0.9-2-2S46.9,6,48,6z
	 M44,16c0-2.2,1.8-4,4-4s4,1.8,4,4v6h-8V16z"/>
<path class="st0" d="M48,55c5,0,9-4,9-9s-4-9-9-9s-9,4-9,9C39,51,43,55,48,55z M48,53c-1.8,0-3.6-0.7-4.9-2h9.8
	C51.6,52.3,49.8,53,48,53z M48,39c1.8,0,3.6,0.7,4.9,2h-9.8C44.4,39.7,46.2,39,48,39z M41.7,43h12.6c0.3,0.6,0.5,1.3,0.6,2H41.1
	C41.2,44.3,41.4,43.6,41.7,43z M54.9,47c-0.1,0.7-0.3,1.4-0.6,2H41.7c-0.3-0.6-0.5-1.3-0.6-2H54.9z"/>
</svg>
