<?xml version="1.0" encoding="utf-8"?>
<!-- Generator: Adobe Illustrator 23.0.1, SVG Export Plug-In . SVG Version: 6.00 Build 0)  -->
<svg version="1.1" id="Layer_1" xmlns="http://www.w3.org/2000/svg" xmlns:xlink="http://www.w3.org/1999/xlink" x="0px" y="0px"
	 viewBox="0 0 66 65.3" style="enable-background:new 0 0 66 65.3;" xml:space="preserve">
<style type="text/css">
	.st0{fill:#FFFFFF;}
</style>
<g>
	<g>
		<g>
			<path class="st0" d="M56.9,36.6L56.9,36.6c-0.1-0.2-0.1-23.8-0.1-24.1c0-0.1,0-0.2-0.1-0.3c0-0.1-0.1-0.1-0.1-0.2L47,1
				c-0.1-0.2-0.3-0.3-0.6-0.3s-36.8,0-36.8,0C9.2,0.7,8.9,1,8.9,1.4l0,0v35.2c-5.5,2.5-8.6,5.8-8.6,9.3c0,7.7,14.4,13.7,32.7,13.7
				c0.2,0,0.4,0,0.6,0L29.5,64c-0.3,0.3-0.3,0.8,0,1.1c0.3,0.3,0.8,0.3,1.1,0c5.5-5.5,6-5.6,5.6-6.4l-0.1-0.2L30.6,53
				c-0.3-0.3-0.8-0.3-1.1,0c-0.3,0.3-0.3,0.8,0,1.1l4.2,4.3C16.3,58.4,1.8,52.7,1.8,46c0-2.8,2.5-5.5,7.1-7.7c0,0.1,0.1,0.3,0.2,0.4
				l9.7,11.1l0,0c0.1,0.1,0.1,0.1,0.2,0.1c0,0,0,0,0.1,0s0.2,0.1,0.3,0.1c0.2,0,36.8,0,37.1-0.1c0.2-0.1,0.3-0.2,0.3-0.3
				c0.1-0.1,0.1-0.1,0.1-0.2c0,0,0-0.1,0-0.2v-11c4.8,2.2,7.4,5,7.4,7.8c0,5.5-9.9,10.4-23.5,11.8c-0.4,0-0.7,0.4-0.7,0.8
				c0,0.4,0.4,0.7,0.7,0.7h0.1c14.6-1.5,24.8-7,24.8-13.3C65.7,42.5,62.6,39.1,56.9,36.6z M54.4,11.8H19.6l-8.3-9.6H46L54.4,11.8z
				 M10.3,3.5c1.2,1.4,1.1,1.3,8.2,9.4v34.5L10.3,38V3.5z M20,39h0.3c0.4,0,0.8-0.3,0.8-0.8c0-0.4-0.3-0.8-0.8-0.8H20V13.3h25.6v0.3
				c0,0.4,0.3,0.8,0.8,0.8c0.4,0,0.8-0.3,0.8-0.8v-0.3h8.2v34.6c-0.1,0-0.3,0.1-0.4,0.2c-0.2,0.1-0.2,0.4-0.2,0.6H20V39z"/>
		</g>
		<g>
			<path class="st0" d="M31.2,37.5H29c-0.4,0-0.8,0.3-0.8,0.8c0,0.4,0.3,0.8,0.8,0.8h2.2c0.4,0,0.8-0.3,0.8-0.8
				C31.9,37.9,31.6,37.5,31.2,37.5z"/>
		</g>
		<g>
			<path class="st0" d="M25.7,37.5h-2.2c-0.4,0-0.8,0.3-0.8,0.8c0,0.4,0.3,0.8,0.8,0.8h2.2c0.4,0,0.8-0.3,0.8-0.8
				C26.5,37.9,26.1,37.5,25.7,37.5z"/>
		</g>
		<g>
			<path class="st0" d="M42.1,37.5h-2.2c-0.4,0-0.8,0.3-0.8,0.8c0,0.4,0.3,0.8,0.8,0.8h2.2c0.4,0,0.8-0.3,0.8-0.8
				C42.9,37.9,42.5,37.5,42.1,37.5z"/>
		</g>
		<g>
			<path class="st0" d="M36.6,37.5h-2.2c-0.4,0-0.8,0.3-0.8,0.8c0,0.4,0.3,0.8,0.8,0.8h2.2c0.4,0,0.8-0.3,0.8-0.8
				C37.4,37.9,37.1,37.5,36.6,37.5z"/>
		</g>
		<g>
			<path class="st0" d="M49.3,40.5c-0.3-0.3-0.7-0.3-1.1-0.1c-0.3,0.3-0.3,0.7-0.1,1.1l1.3,1.5c0.3,0.3,0.7,0.3,1.1,0.1
				c0.3-0.3,0.3-0.7,0.1-1.1L49.3,40.5z"/>
		</g>
		<g>
			<path class="st0" d="M52.6,44.3c-0.3-0.3-0.7-0.3-1.1-0.1c-0.3,0.3-0.3,0.7-0.1,1.1l1.3,1.5c0.3,0.3,0.7,0.3,1.1,0.1
				c0.3-0.3,0.3-0.7,0.1-1.1L52.6,44.3z"/>
		</g>
		<g>
			<path class="st0" d="M46.4,19.4c0.4,0,0.8-0.3,0.8-0.8v-2c0-0.4-0.3-0.8-0.8-0.8c-0.4,0-0.8,0.3-0.8,0.8v2
				C45.6,19,46,19.4,46.4,19.4z"/>
		</g>
		<g>
			<path class="st0" d="M47.1,38v-1.2c0-0.4-0.3-0.8-0.8-0.8c-0.4,0-0.8,0.3-0.8,0.8v0.7h-0.3c-0.4,0-0.8,0.3-0.8,0.8
				c0,0.4,0.3,0.8,0.8,0.8H46l0.1,0.2c0.1,0.2,0.4,0.3,0.6,0.3c0.2,0,0.4-0.1,0.5-0.2c0.3-0.3,0.3-0.7,0.1-1.1L47.1,38z"/>
		</g>
		<g>
			<path class="st0" d="M46.4,24.4c0.4,0,0.8-0.3,0.8-0.8v-2c0-0.4-0.3-0.8-0.8-0.8c-0.4,0-0.8,0.3-0.8,0.8v2
				C45.6,24.1,46,24.4,46.4,24.4z"/>
		</g>
		<g>
			<path class="st0" d="M46.4,34.5c0.4,0,0.8-0.3,0.8-0.8v-2c0-0.4-0.3-0.8-0.8-0.8c-0.4,0-0.8,0.3-0.8,0.8v2
				C45.6,34.2,46,34.5,46.4,34.5z"/>
		</g>
		<g>
			<path class="st0" d="M46.4,29.5c0.4,0,0.8-0.3,0.8-0.8v-2c0-0.4-0.3-0.8-0.8-0.8c-0.4,0-0.8,0.3-0.8,0.8v2
				C45.6,29.1,46,29.5,46.4,29.5z"/>
		</g>
	</g>
</g>
</svg>
