<?xml version="1.0" encoding="utf-8"?>
<!-- Generator: Adobe Illustrator 22.1.0, SVG Export Plug-In . SVG Version: 6.00 Build 0)  -->
<svg version="1.1" id="Layer_1" xmlns="http://www.w3.org/2000/svg" xmlns:xlink="http://www.w3.org/1999/xlink" x="0px" y="0px"
	 viewBox="0 0 200 191.9" style="enable-background:new 0 0 200 191.9;" xml:space="preserve">
<style type="text/css">
	.st0{fill:#E60028;}
	.st1{fill:#000054;}
	.st2{fill:url(#SVGID_1_);}
	.st3{fill:#E17000;}
</style>
<g>
	<g>
		<path class="st0" d="M134.3,60.5l-0.8-0.8l-0.7-0.8l-0.2-0.2c-0.7,0.5-1.4,0.9-2.1,1.2l1.4,1.5l0.2,0.2l0.2,0.2l0.8,0.8
			c0.7-0.4,1.4-0.8,2.1-1.3L134.3,60.5z M107.2,32.5L107.2,32.5c-0.3,0.3-0.5,0.6-0.7,1c-0.2,0.3-0.4,0.7-0.6,1l2.6,2.7
			c0.4-0.7,0.8-1.4,1.3-2.1v0L107.2,32.5z"/>
		<path class="st0" d="M143.6,44.7L143.6,44.7c0,2.8-0.5,5.5-1.6,7.9c-0.3,0.7-1,1.1-1.7,1.1c-0.2,0-0.5,0-0.7-0.1
			c-0.9-0.4-1.3-1.4-0.9-2.4c0.8-2,1.3-4.2,1.3-6.5c0-1,0.8-1.8,1.8-1.8C142.8,42.9,143.6,43.7,143.6,44.7z"/>
		<path class="st0" d="M140.4,37.5c-0.3,0.1-0.6,0.2-0.9,0.2c-0.6,0-1.2-0.3-1.6-0.9c-1.1-2-2.5-3.6-4.3-5c-0.8-0.6-0.9-1.7-0.3-2.5
			c0.6-0.8,1.7-0.9,2.5-0.3c2.1,1.7,3.9,3.7,5.2,6.1C141.6,35.9,141.3,37,140.4,37.5z"/>
		<path class="st0" d="M128.3,26.9c-0.2,1-1.1,1.6-2.1,1.5c-2.2-0.4-4.5-0.3-6.6,0.2c-0.1,0-0.3,0-0.4,0c-0.8,0-1.6-0.6-1.8-1.4
			c-0.2-1,0.4-1.9,1.3-2.2c2.6-0.6,5.4-0.7,8-0.2C127.8,25,128.4,25.9,128.3,26.9z"/>
		<path class="st0" d="M136,60.6c-0.3,0.2-0.6,0.5-0.9,0.7l-0.8-0.8l-0.8-0.8l-0.7-0.8l-0.2-0.2c0.4-0.3,0.8-0.6,1.2-0.9
			c0.8-0.6,1.9-0.5,2.5,0.3C136.9,58.8,136.8,60,136,60.6z"/>
		<path class="st0" d="M112.3,32.3c-1,0.9-1.8,1.8-2.5,2.8l-2.5-2.6l0,0c0.8-1.1,1.7-2,2.7-2.9c0.7-0.7,1.9-0.6,2.5,0.1
			C113.1,30.5,113,31.6,112.3,32.3z"/>
	</g>
	<g>
		<path class="st1" d="M159.2,163.8c0,2.7-1.4,5.3-3.9,6.8l-35.2,20.3c-3.7,2.2-8.5,0.9-10.6-2.9c-0.7-1.2-1-2.6-1-3.9
			c0-2.7,1.4-5.3,3.9-6.8l13.5-7.8l5.1,5.1c1.1,1.2,2.6,1.7,4.1,1.7c1.3,0,2.7-0.5,3.8-1.4l11.6-9.8c0.2-0.2,0.4-0.4,0.6-0.6
			l5.8-6.5c0.5,0.5,1,1.1,1.4,1.8C158.8,161.1,159.2,162.4,159.2,163.8z"/>
	</g>
	<g>
		<path class="st1" d="M20.5,64.3l4,4l-10,13.3c-1.5,2-3.9,3.1-6.2,3.1c-1.6,0-3.3-0.5-4.7-1.6c-3.4-2.6-4.1-7.5-1.6-10.9l24.4-32.5
			c1.5-2,3.9-3.1,6.2-3.1c1.6,0,3.3,0.5,4.7,1.6c0.4,0.3,0.7,0.6,1,0.9l-7.6,6.7c-0.1,0.1-0.2,0.2-0.3,0.3l-10,10
			C18.2,58.3,18.2,62,20.5,64.3z"/>
	</g>
	<g>
		<path class="st1" d="M22.6,162.7c-15-16.2-21-35.7-21.2-50.9l35.8,35.8c1.7-1.7,4.1-2.6,6.8-2.1c2.7,0.6,4.8,2.7,5.4,5.4
			c0.6,2.6-0.3,5.1-2.1,6.8l33.6,33.6C80.9,191.2,53.2,195.6,22.6,162.7z"/>
	</g>
	<g>
		<path d="M1.4,111.3c0,0.1,0,0.2,0,0.4l0,0V111.3z"/>
	</g>
	<g>
		<linearGradient id="SVGID_1_" gradientUnits="userSpaceOnUse" x1="43.7331" y1="150.6582" x2="74.037" y2="120.3543">
			<stop  offset="0" style="stop-color:#E60028"/>
			<stop  offset="0.7654" style="stop-color:#E17000"/>
		</linearGradient>
		<path class="st2" d="M128.1,174.4C118,164.4,29.3,75.6,20,66.3c-0.4-0.4-1.1-0.4-1.5,0.1c-4.4,6.1-13.7,21.3-14.7,42.5
			c-0.1,1.2,0.4,2.3,1.2,3.1l30.3,30.3c1.1,1.1,2.7,1.4,4.2,1c0.9-0.3,1.8-0.4,2.8-0.4c0.7,0,1.4,0.1,2.1,0.2
			c3.6,0.8,6.5,3.6,7.3,7.3c0.4,1.7,0.3,3.4-0.2,5c-0.4,1.4-0.1,2.9,0.9,4l28.2,28.2c0.8,0.8,2,1.3,3.2,1.2
			c6.8-0.4,24.9-2.5,44.1-12.8C128.4,175.6,128.5,174.9,128.1,174.4z M59.1,109.7c-0.2,1.3-1.5,2.2-2.8,2l-20.1-3.5l9,9
			c0.7,0.7,0.9,1.8,0.5,2.7c-0.4,0.8-1.2,1.3-2.2,1.3c-0.1,0-0.2,0-0.3,0l-28.8-3.6c-1.3-0.2-2.2-1.4-2.1-2.7
			c0.2-1.3,1.4-2.2,2.7-2.1l21.8,2.7l-9.4-9.4c-0.7-0.7-0.9-1.9-0.4-2.8c0.5-0.9,1.5-1.4,2.5-1.3l27.6,4.8
			C58.5,107.2,59.4,108.4,59.1,109.7z M109.5,160.1c-0.2,1.3-1.5,2.2-2.8,2l-20.1-3.5l9,9c0.7,0.7,0.9,1.8,0.5,2.7
			c-0.4,0.8-1.2,1.3-2.2,1.3c-0.1,0-0.2,0-0.3,0L64.9,168c-1.3-0.2-2.2-1.4-2.1-2.7c0.2-1.3,1.4-2.2,2.7-2.1l21.8,2.7l-9.4-9.4
			c-0.7-0.7-0.9-1.9-0.4-2.8c0.5-0.9,1.5-1.4,2.5-1.3l27.6,4.8C108.8,157.5,109.7,158.8,109.5,160.1z"/>
	</g>
	<g>
		<path class="st1" d="M161.3,151.2l-5.5,6.2l-5.7,6.4c-0.1,0.2-0.3,0.3-0.4,0.5l-11.6,9.8c-1.9,1.6-4.6,1.5-6.3-0.3L21.3,63.4
			c-1.8-1.8-1.8-4.8,0-6.6l10-10c0.1-0.1,0.1-0.1,0.2-0.2l7.6-6.7l6.7-5.9l8.9,4.1c-0.2,0.4-0.5,0.8-0.9,1.2l-10,10
			c-2.3,2.3-2.3,6,0,8.2l94.5,94.5c2.3,2.3,6,2.3,8.2,0l10.3-10.3L161.3,151.2z"/>
	</g>
	<g>
		<path class="st3" d="M97.5,3.6l13.8,13.9c-0.1,0-0.2,0-0.3,0c-1.7,0-3.2,0.7-4.4,1.8c-1.9,1.9-5.1,1.8-7-0.2l-3.7-3.7
			c-4.1-4.2-10.7-4.6-15.3-1.1c-0.2,0.2-0.4,0.3-0.6,0.5L56.8,38.6L55.5,38l-9.8-4.5l-2.1-1L83.1,2C87.7-0.9,93.7-0.3,97.5,3.6z"/>
	</g>
	<g>
		<path class="st3" d="M195.3,115.1l-32.7,37.3l-0.6-1.2l-5-10.4l-0.8-1.6l24.9-22.6c3.9-4.7,3.6-11.6-0.7-15.9l-8.5-8.5
			c-1.4-1.4-1.1-3.9,0.8-4.7c1.8-0.8,3.2-2.3,3.8-4.1l17,17.1C197.5,104.4,198.2,110.5,195.3,115.1z"/>
	</g>
	<g>
		<g>
			<path class="st1" d="M153.9,129.1c-3,0-5.4-2.4-5.4-5.4c0-3,2.4-5.4,5.4-5.4s5.4,2.4,5.4,5.4
				C159.3,126.7,156.9,129.1,153.9,129.1z M153.9,119.5c-2.3,0-4.2,1.9-4.2,4.2c0,2.3,1.9,4.2,4.2,4.2s4.2-1.9,4.2-4.2
				C158.1,121.4,156.2,119.5,153.9,119.5z"/>
		</g>
	</g>
	<g>
		<path class="st1" d="M174.5,102l-11.2-11.6l-9-9.3l-1.7-1.8l-7.1-7.3l-0.6-0.6l-3.7-3.9l-1.4-1.4l-0.8-0.9l-3-3.1l-1-1l-0.8-0.8
			l-0.8-0.8l-0.7-0.8l-0.2-0.2l-1.4-1.4l-2.5-2.6l-1.1-1.1l-3.6-3.7l-2.6-2.7l-11.7-12v0l-2.5-2.6l0,0l-1.8-1.9l-8.2-8.5
			c-2.2-2.3-5.3-3.5-8.3-3.5c-2.9,0-5.7,1.1-8,3.2L55.4,46.3c-2.2,2.1-3.5,5-3.5,8.1c-0.1,3.1,1.1,6,3.2,8.2l22,22.9l7.6,7.9
			l1.8,1.9l5.9,6.1l24.8,25.9l9.3,9.7l2.5,2.6l2.9,3c1.3,1.3,2.8,2.3,4.4,2.9c1.2,0.4,2.6,0.7,3.9,0.7c2.9,0,5.7-1.1,8-3.2
			l25.9-24.9c2.2-2.1,3.5-5,3.5-8.1C177.9,107.1,176.7,104.2,174.5,102z M56.8,60.9c-1.7-1.7-2.6-4.1-2.5-6.5c0-2.4,1-4.7,2.8-6.4
			l25.5-24.4c1.8-1.7,4-2.5,6.3-2.5c2.4,0,4.8,0.9,6.6,2.8l4,4.1L61.5,65.8L56.8,60.9z M128.9,133.6l-1.2,1.2l-1.2-1.2l-8.2-8.6
			L94,99.7l-6.6-6.9l-1.9-2l-7.7-8.1L63.2,67.6L84,46.7l5.1-5.1l12-12l4.2,4.4l0.5,0.5l2.6,2.7l7.6,7.9v0l6.6,6.9l4.8,4.9l1.2,1.2
			l1.5,1.5l0.2,0.2l1.4,1.5l0.2,0.2l0.2,0.2l0.8,0.8l0.5,0.5l2.5,2.6l0.2,0.2l1,1l5.4,5.6l1.1,1.1l6.5,6.7l1.9,2l9.3,9.6l4.6,4.8
			l-26.7,26.7l-1.4,1.3L128.9,133.6z M172.6,116.5l-25.9,24.9c-2.5,2.4-6.1,3.1-9.2,2c-1.3-0.4-2.6-1.2-3.6-2.3l-4.4-4.6l8.6-8.6
			l29.7-29.7l5.2,5.4c1.7,1.7,2.6,4.1,2.6,6.5C175.4,112.6,174.3,114.8,172.6,116.5z"/>
	</g>
	<g>
		<line class="st1" x1="71.6" y1="44.3" x2="81" y2="34.9"/>
		<path class="st1" d="M71.6,45.7c-0.3,0-0.7-0.1-1-0.4c-0.5-0.5-0.5-1.4,0-1.9l3.8-3.8c0.5-0.5,1.4-0.5,1.9,0
			c0.5,0.5,0.5,1.4,0,1.9l-3.8,3.8C72.3,45.5,71.9,45.7,71.6,45.7z M77.3,39.9c-0.3,0-0.7-0.1-1-0.4c-0.5-0.5-0.5-1.4,0-1.9l3.7-3.7
			c0.5-0.5,1.4-0.5,1.9,0c0.5,0.5,0.5,1.4,0,1.9l-3.7,3.7C78,39.8,77.7,39.9,77.3,39.9z"/>
	</g>
	<path class="st0" d="M133,62.6c-2.9,1.6-6.2,2.5-9.7,2.5c-11.2,0-20.3-9.1-20.3-20.3c0-3.7,1-7.2,2.8-10.2l2.6,2.7l7.6,7.9v0
		l6.6,6.9l4.8,4.9l1.2,1.2l1.5,1.5l0.2,0.2l1.4,1.5l0.2,0.2l0.2,0.2L133,62.6z"/>
	<rect x="107.8" y="78.9" transform="matrix(0.7071 -0.7071 0.7071 0.7071 -30.821 115.3271)" class="st0" width="32" height="32"/>
	<g>
		<g>
			<path class="st0" d="M194.5,53.8c-0.6,0-1.1-0.3-1.5-0.8c-0.6-0.8-0.3-1.9,0.5-2.5l0.4-0.3l-0.4-0.2c-0.9-0.4-1.3-1.5-0.8-2.4
				c0.4-0.9,1.5-1.3,2.4-0.8l3.2,1.6c0.6,0.3,1,0.8,1,1.5c0,0.6-0.3,1.3-0.8,1.6l-3,2C195.2,53.7,194.9,53.8,194.5,53.8z"/>
		</g>
		<g>
			<path class="st0" d="M186.4,46.4c-0.3,0-0.5-0.1-0.8-0.2l-6.3-3c-0.9-0.4-1.3-1.5-0.8-2.4c0.4-0.9,1.5-1.3,2.4-0.8l6.3,3
				c0.9,0.4,1.3,1.5,0.8,2.4C187.7,46,187.1,46.4,186.4,46.4z M172.3,39.5c-0.3,0-0.5-0.1-0.8-0.2l-6.3-3c-0.9-0.4-1.3-1.5-0.8-2.4
				c0.4-0.9,1.5-1.3,2.4-0.8l6.3,3c0.9,0.4,1.3,1.5,0.8,2.4C173.6,39.1,172.9,39.5,172.3,39.5z"/>
		</g>
		<g>
			<path class="st0" d="M155.2,34.7c-0.9,0-1.7-0.7-1.8-1.7l-0.3-3.6c0-0.6,0.3-1.3,0.8-1.6s1.2-0.4,1.8-0.1l3.2,1.6
				c0.9,0.4,1.3,1.5,0.8,2.4c-0.4,0.9-1.5,1.3-2.4,0.8l-0.4-0.2l0,0.5c0.1,1-0.7,1.9-1.7,1.9C155.3,34.7,155.2,34.7,155.2,34.7z"/>
		</g>
		<g>
			<path class="st0" d="M157.4,66c-0.9,0-1.7-0.7-1.8-1.7l-0.5-7c-0.1-1,0.7-1.9,1.7-1.9c1-0.1,1.9,0.7,1.9,1.7l0.5,7
				c0.1,1-0.7,1.9-1.7,1.9C157.5,66,157.5,66,157.4,66z M156.3,50.3c-0.9,0-1.7-0.7-1.8-1.7l-0.5-7c-0.1-1,0.7-1.9,1.7-1.9
				c1-0.1,1.9,0.7,1.9,1.7l0.5,7c0.1,1-0.7,1.9-1.7,1.9C156.4,50.3,156.3,50.3,156.3,50.3z"/>
		</g>
		<g>
			<path class="st0" d="M158.3,78.3c-0.3,0-0.5-0.1-0.8-0.2c-0.6-0.3-1-0.8-1-1.5l-0.3-3.6c-0.1-1,0.7-1.9,1.7-1.9
				c1-0.1,1.9,0.7,1.9,1.7l0,0.5l0.4-0.3c0.8-0.6,1.9-0.3,2.5,0.5c0.6,0.8,0.3,1.9-0.5,2.5l-3,2C159,78.2,158.7,78.3,158.3,78.3z"/>
		</g>
		<g>
			<path class="st0" d="M168.5,71.4c-0.6,0-1.1-0.3-1.5-0.8c-0.6-0.8-0.3-1.9,0.5-2.5l5.8-3.9c0.8-0.6,1.9-0.3,2.5,0.5
				c0.6,0.8,0.3,1.9-0.5,2.5l-5.8,3.9C169.2,71.3,168.9,71.4,168.5,71.4z M181.5,62.6c-0.6,0-1.1-0.3-1.5-0.8
				c-0.6-0.8-0.3-1.9,0.5-2.5l5.8-3.9c0.8-0.6,1.9-0.3,2.5,0.5c0.6,0.8,0.3,1.9-0.5,2.5l-5.8,3.9C182.2,62.5,181.9,62.6,181.5,62.6z
				"/>
		</g>
	</g>
	<g>
		<path class="st1" d="M87.3,66.6c-0.4,0-0.7-0.3-0.7-0.7v-0.9c0-0.4,0.3-0.7,0.7-0.7s0.7,0.3,0.7,0.7v0.9
			C88,66.3,87.7,66.6,87.3,66.6z M87.3,60.3c-0.4,0-0.7-0.3-0.7-0.7v-1.8c0-0.4,0.3-0.7,0.7-0.7s0.7,0.3,0.7,0.7v1.8
			C88,60,87.7,60.3,87.3,60.3z M87.3,54.9c-0.4,0-0.7-0.3-0.7-0.7v-5.4c0-0.4,0.3-0.7,0.7-0.7s0.7,0.3,0.7,0.7v5.4
			C88,54.6,87.7,54.9,87.3,54.9z M87.3,47.7c-0.4,0-0.7-0.3-0.7-0.7v-3.6c0-0.4,0.3-0.7,0.7-0.7s0.7,0.3,0.7,0.7v3.6
			C88,47.4,87.7,47.7,87.3,47.7z"/>
	</g>
	<g>
		<path class="st1" d="M94.5,100.8c-0.4,0-0.7-0.3-0.7-0.7v-3.6c0-0.4,0.3-0.7,0.7-0.7c0.4,0,0.7,0.3,0.7,0.7v3.6
			C95.2,100.5,94.9,100.8,94.5,100.8z M94.5,95.4c-0.4,0-0.7-0.3-0.7-0.7v-5.4c0-0.4,0.3-0.7,0.7-0.7c0.4,0,0.7,0.3,0.7,0.7v5.4
			C95.2,95.1,94.9,95.4,94.5,95.4z M94.5,86.4c-0.4,0-0.7-0.3-0.7-0.7v-1.8c0-0.4,0.3-0.7,0.7-0.7c0.4,0,0.7,0.3,0.7,0.7v1.8
			C95.2,86.1,94.9,86.4,94.5,86.4z M94.5,79.2c-0.4,0-0.7-0.3-0.7-0.7v-0.9c0-0.4,0.3-0.7,0.7-0.7c0.4,0,0.7,0.3,0.7,0.7v0.9
			C95.2,78.9,94.9,79.2,94.5,79.2z"/>
	</g>
	<g>
		<path class="st1" d="M73.8,78.3c-0.4,0-0.7-0.3-0.7-0.7v-0.9c0-0.4,0.3-0.7,0.7-0.7s0.7,0.3,0.7,0.7v0.9
			C74.4,78,74.1,78.3,73.8,78.3z M73.8,72.1c-0.4,0-0.7-0.3-0.7-0.7v-1.8c0-0.4,0.3-0.7,0.7-0.7s0.7,0.3,0.7,0.7v1.8
			C74.4,71.8,74.1,72.1,73.8,72.1z M73.8,66.7c-0.4,0-0.7-0.3-0.7-0.7v-5.4c0-0.4,0.3-0.7,0.7-0.7s0.7,0.3,0.7,0.7V66
			C74.4,66.3,74.1,66.7,73.8,66.7z M73.8,59.4c-0.4,0-0.7-0.3-0.7-0.7v-3.6c0-0.4,0.3-0.7,0.7-0.7s0.7,0.3,0.7,0.7v3.6
			C74.4,59.1,74.1,59.4,73.8,59.4z"/>
	</g>
	<g>
		<path class="st1" d="M152.1,103.5c-0.4,0-0.7-0.3-0.7-0.7V102c0-0.4,0.3-0.7,0.7-0.7s0.7,0.3,0.7,0.7v0.9
			C152.8,103.2,152.5,103.5,152.1,103.5z M152.1,97.3c-0.4,0-0.7-0.3-0.7-0.7v-1.8c0-0.4,0.3-0.7,0.7-0.7s0.7,0.3,0.7,0.7v1.8
			C152.8,97,152.5,97.3,152.1,97.3z M152.1,91.9c-0.4,0-0.7-0.3-0.7-0.7v-5.4c0-0.4,0.3-0.7,0.7-0.7s0.7,0.3,0.7,0.7v5.4
			C152.8,91.6,152.5,91.9,152.1,91.9z M152.1,84.7c-0.4,0-0.7-0.3-0.7-0.7v-3.6c0-0.4,0.3-0.7,0.7-0.7s0.7,0.3,0.7,0.7V84
			C152.8,84.4,152.5,84.7,152.1,84.7z"/>
	</g>
	<g>
		<path class="st1" d="M138.6,107.6c-0.4,0-0.7,0.3-0.7,0.7v0.8c0,0.4,0.3,0.7,0.7,0.7c0.4,0,0.7-0.3,0.7-0.7v-0.8
			C139.3,107.9,139,107.6,138.6,107.6z M138.6,113.9c-0.4,0-0.7,0.3-0.7,0.7v1.8c0,0.4,0.3,0.7,0.7,0.7c0.4,0,0.7-0.3,0.7-0.7v-1.8
			C139.3,114.2,139,113.9,138.6,113.9z M138.6,119.3c-0.4,0-0.7,0.3-0.7,0.7v5.4c0,0.4,0.3,0.7,0.7,0.7c0.4,0,0.7-0.3,0.7-0.7V120
			C139.3,119.6,139,119.3,138.6,119.3z M138.6,126.5c-0.4,0-0.7,0.3-0.7,0.7v0.8l1.2-1.2C139,126.6,138.8,126.5,138.6,126.5z"/>
	</g>
</g>
</svg>
