<?xml version="1.0" encoding="utf-8"?>
<!-- Generator: Adobe Illustrator 22.1.0, SVG Export Plug-In . SVG Version: 6.00 Build 0)  -->
<svg version="1.1" id="Layer_1" xmlns="http://www.w3.org/2000/svg" xmlns:xlink="http://www.w3.org/1999/xlink" x="0px" y="0px"
	 viewBox="0 0 209.2 207.7" style="enable-background:new 0 0 209.2 207.7;" xml:space="preserve">
<style type="text/css">
	.st0{fill:#000054;}
	.st1{fill:url(#SVGID_1_);}
	.st2{fill:#C864C8;}
	.st3{fill:#F39000;}
	.st4{fill:#E60028;}
</style>
<g>
	<g>
		<path class="st0" d="M136.9,169.5l-26.1-26.1l-5.6,5.6l13.9,13.9v13h-4v-11.3l-12.8-12.8l-3.9,3.9l6.7,6.7l-2.8,2.8l-6.7-6.7
			l-5.4,5.4l-15-15l-10.3,10.3v12h-4v-13.7l11.5-11.5l-4.6-4.6l-21.7,21.7l-2.8-2.8L65,138.7l-3.6-3.6l-11.5,11.5H37.5v-4h10.7
			l10.3-10.3l-17.3-17.3l5.4-5.4l-6.9-6.9l2.8-2.8l6.9,6.9l3.9-3.9L40.5,89.9H29.2v-4h13L56.2,100l5.6-5.6L35.3,67.9
			c-5.8-5.8-15.4-4.7-19.8,2.2c-4.3,6.7-9.1,15.7-12.4,26.2c0.2,5.7,3.1,11,6.5,15.4c0.4,0.5-0.2,1-0.6,0.7c-1.7-1.5-3.2-3.2-4.5-5
			c-0.6,2.7-2.6,5.3-3.4,7.9c-1.3,4.6-1.5,9.6-0.4,14.3c1.5,6.9,5.4,11.8,10.5,15.8c1.7,2,3.6,3.8,5.7,5.4c-0.8-0.2-1.5-0.3-2.3-0.4
			c-0.1,0-0.2,0.1-0.3,0.2c-0.1,0-0.1,0-0.2,0c-0.1,0.1-0.2,0.2-0.2,0.3c0,0.2,0.1,0.3,0.2,0.4c-0.1,0-0.1,0.1-0.2,0.2
			c-0.1,0.4-0.1,0.8-0.1,1.2c0,0-0.1,0-0.1,0c-0.3,1.8-0.6,3.5-0.6,5.3c-0.1,3.3,0.4,6.7,1.4,9.9c0.3,1,0.7,1.9,1.1,2.9
			c2.4,3.2,5.2,6.5,8.3,9.7c1.4,1.5,2.9,2.9,4.3,4.2c2.2,1.4,4.4,2.6,7.1,3.3c1.2,0.3,2.3,0.5,3.4,0.6c2.1,0.4,4.2,0.6,6.3,0.7
			c2.3,0,4.7,0,7.1-0.2c-0.1,0.2-0.2,0.4-0.4,0.5c-0.6,0.4-1.3,0.8-2.1,1.1c0.1,0.1,0.2,0.3,0.3,0.4c-0.2,0-0.3,0.2-0.3,0.4
			c0.4,2.7,2.2,5.8,4.6,8.1c2,2.9,4.8,5.2,8.7,6.4c4.9,1.5,11.8,3.2,16.2,0c1.6-0.8,3.1-1.5,4.6-2.4c3.1-1.9,5.1-4.6,7.7-6.9
			c0,0,0,0.1,0,0.1c-0.3,1.3-0.7,2.7-0.5,4.1c0,0.1,0.1,0.2,0.2,0.3c0,0,0,0,0,0.1c1.7,0.7,3.3,1.7,5.2,2c3.4,0.7,7-0.2,10.2-1.3
			c2.8-0.9,4.7-2.2,6-3.7c1.7-1.4,3.2-3.5,4.2-5.1c1.3-2,2.7-4.3,3.8-6.7c0.5,2.4,0.3,4.8-0.4,7.1c1.4,0.1,2.7,0.4,4.1,0.4
			c0.9,0,1.8-0.1,2.7-0.2c2.8-1.5,5.3-2.9,7.6-4.3C141.6,185.1,142.8,175.3,136.9,169.5z M39.9,169.4l-2.8-2.8l4.2-4.2l2.8,2.8
			L39.9,169.4z"/>
	</g>
	<g>
		<linearGradient id="SVGID_1_" gradientUnits="userSpaceOnUse" x1="75.1036" y1="130.1065" x2="97.0227" y2="108.1874">
			<stop  offset="0" style="stop-color:#F39000"/>
			<stop  offset="0.2238" style="stop-color:#F38D01"/>
			<stop  offset="0.3888" style="stop-color:#F28403"/>
			<stop  offset="0.5349" style="stop-color:#F07408"/>
			<stop  offset="0.6701" style="stop-color:#EE5D0E"/>
			<stop  offset="0.7979" style="stop-color:#EC4016"/>
			<stop  offset="0.9183" style="stop-color:#E91D20"/>
			<stop  offset="1" style="stop-color:#E60028"/>
		</linearGradient>
		<path class="st1" d="M83.1,94.3l-21.9,21.9L89,144l21.9-21.9L83.1,94.3z M69.6,119.7c-3.2,0-3.2-5,0-5
			C72.9,114.7,72.8,119.7,69.6,119.7z M78.8,128.7c-3.2,0-3.2-5,0-5C82.1,123.7,82.1,128.7,78.8,128.7z M87.6,137.2
			c-3.2,0-3.2-5,0-5C90.8,132.2,90.8,137.2,87.6,137.2z"/>
	</g>
	<path class="st2" d="M81.7,78.3l-23.6,23.6l-1.9-1.9l-2.8,2.8l1.9,1.9l0,0l-3.9,3.9l-1.9-1.9l-2.8,2.8l1.9,1.9l0,0l-3.4,3.4
		l15.4,15.4l-2,2l2.8,2.8l2-2l0,0l3.6,3.6l-2,2l2.8,2.8l2-2L90.4,160l3.4-3.4l0,0l1.9,1.9l2.8-2.8l-1.9-1.9l3.9-3.9l0,0l1.9,1.9
		l2.8-2.8l-1.9-1.9l7.6-7.6l4.3-4.3l3.8-3.8l4.3-4.3l3.7-3.7L81.7,78.3z M116.6,125.3l-26.2,26.2l-36.7-36.7l28-28l36.7,36.7
		L116.6,125.3z"/>
	<g>
		<g>
			<rect x="73" y="143.4" transform="matrix(0.7071 -0.7071 0.7071 0.7071 -80.5909 96.2616)" class="st2" width="5.9" height="4"/>
		</g>
	</g>
	<g>
		<path class="st2" d="M69.7,95.3c-0.8,0-1.5-0.3-2.1-0.9L49.7,76.5l-0.9-2l-1.1-32c-0.1-1.7,1.2-3.1,2.9-3.1c1.7,0,3.1,1.2,3.1,2.9
			l1,30.8l17,17c1.2,1.2,1.2,3.1,0,4.3C71.2,95,70.5,95.3,69.7,95.3z"/>
	</g>
	<g>
		<path class="st3" d="M62,42.5h-1.8c-1.7,0-3-1.3-3-3s1.3-3,3-3H62c1.7,0,3,1.3,3,3S63.7,42.5,62,42.5z"/>
	</g>
	<g>
		<path class="st2" d="M80.7,73.2c-0.8,0-1.5-0.3-2.1-0.9c-1.2-1.2-1.2-3.1,0-4.3l15.9-15.9l-9.7-9.7H69.7c-1.7,0-3-1.3-3-3
			s1.3-3,3-3h16.4c0.8,0,1.6,0.3,2.1,0.9L100.9,50c0.6,0.6,0.9,1.3,0.9,2.1c0,0.8-0.3,1.6-0.9,2.1L82.8,72.3
			C82.2,72.9,81.4,73.2,80.7,73.2z"/>
	</g>
	<g>
		<g>
			<path class="st3" d="M40.3,48.7c-0.1,1.9-0.1,3.9-0.2,5.8c-0.1,3.2,4.9,3.2,5,0c0.1-1.9,0.1-3.9,0.2-5.8
				C45.4,45.5,40.4,45.5,40.3,48.7L40.3,48.7z"/>
		</g>
	</g>
	<g>
		<path class="st2" d="M74.9,67.6c-0.7,0-1.3-0.3-1.8-0.7L56.8,50.5c-1-1-1-2.6,0-3.5c1-1,2.6-1,3.5,0l14.6,14.6l3.1-3.1l-8.2-8.2
			c-1-1-1-2.6,0-3.5c1-1,2.6-1,3.5,0l10,10c1,1,1,2.6,0,3.5l-6.6,6.6C76.2,67.4,75.6,67.6,74.9,67.6z"/>
	</g>
	<g>
		<path class="st3" d="M85.6,54c-0.8,0-1.5-0.3-2.1-0.9l-4-4c-1.2-1.2-1.2-3.1,0-4.3c1.2-1.2,3.1-1.2,4.3,0l4,4
			c1.2,1.2,1.2,3.1,0,4.3C87.2,53.8,86.4,54,85.6,54z"/>
	</g>
	<g>
		<path class="st2" d="M78.6,88.6c-0.8,0-1.5-0.3-2.1-0.9L59,70.3c-1.2-1.2-1.2-3.1,0-4.3c1.2-1.2,3.1-1.2,4.3,0l17.4,17.4
			c1.2,1.2,1.2,3.1,0,4.3C80.1,88.4,79.4,88.6,78.6,88.6z"/>
	</g>
	<g>
		<path class="st3" d="M96.1,86c-0.6,0-1.3-0.2-1.8-0.7l-8-8c-0.5-0.5-0.7-1.1-0.7-1.8c0-0.7,0.3-1.3,0.7-1.8l4.9-4.9
			c1-1,2.6-1,3.5,0c1,1,1,2.6,0,3.5l-3.1,3.1l4.5,4.5l25.8-25.8c1-1,2.6-1,3.5,0c1,1,1,2.6,0,3.5L97.8,85.3
			C97.4,85.8,96.7,86,96.1,86z"/>
	</g>
	<g>
		<path class="st2" d="M121.8,112.2c-0.7,0-1.5-0.3-2.1-0.8l-9.1-8.5c-0.6-0.6-0.9-1.3-1-2.1c0-0.8,0.3-1.6,0.9-2.2l41.5-41.5
			c1.2-1.2,3.1-1.2,4.3,0c1.2,1.2,1.2,3.1,0,4.3l-39.3,39.3l4.7,4.4l37.5-37.5c1.2-1.2,3.1-1.2,4.3,0l6.6,6.6c1.2,1.2,1.2,3.1,0,4.3
			c-1.2,1.2-3.1,1.2-4.3,0l-4.5-4.5L124,111.3C123.4,111.9,122.6,112.2,121.8,112.2z"/>
	</g>
	<g>
		<path class="st2" d="M104.7,94.2c-0.8,0-1.6-0.3-2.2-0.9c-1.2-1.2-1.1-3.1,0.1-4.3l37.1-36.1l-20.5-3.8L102,66.3
			c-1.2,1.2-3.1,1.2-4.3,0c-1.2-1.2-1.2-3.1,0-4.3l18.4-18.3c0.7-0.7,1.7-1,2.7-0.8l27.8,5.2c1.1,0.2,2,1,2.3,2.1
			c0.3,1.1,0,2.2-0.8,3l-41.2,40.2C106.3,94,105.5,94.2,104.7,94.2z"/>
	</g>
	<g>
		<path class="st2" d="M154.9,163.7h-18.5l-2.1-0.9l-24.8-24.8c-1.2-1.2-1.2-3.1,0-4.3c1.2-1.2,3.1-1.2,4.3,0l23.9,23.9h17.3
			c1.7,0,3,1.3,3,3C157.9,162.4,156.6,163.7,154.9,163.7z"/>
	</g>
	<g>
		<path class="st2" d="M140.7,151.9c-0.8,0-1.5-0.3-2.1-0.9l-21.7-21.7c-1.2-1.2-1.2-3.1,0-4.3c1.2-1.2,3.1-1.2,4.3,0l21.7,21.7
			c1.2,1.2,1.2,3.1,0,4.3C142.2,151.6,141.4,151.9,140.7,151.9z"/>
	</g>
	<g>
		<path class="st2" d="M159.3,148.9c-0.6,0-1.3-0.2-1.8-0.7L127.3,118c-1-1-1-2.6,0-3.5c1-1,2.6-1,3.5,0l28.4,28.4l6.5-6.5
			L152.5,123c-0.5-0.5-0.7-1.1-0.7-1.8s0.3-1.3,0.7-1.8l9.5-9.5c1-1,2.6-1,3.5,0c1,1,1,2.6,0,3.5l-7.7,7.7l13.3,13.3
			c1,1,1,2.6,0,3.5l-10.1,10.1C160.6,148.6,159.9,148.9,159.3,148.9z"/>
	</g>
	<g>
		<path class="st2" d="M180.3,94.4l-15.8-15.3c-1.2-1.1-3.1-1.1-4.2,0l-8.8,8.8c-0.6,0.6-0.9,1.3-0.9,2.2c0,0.8,0.3,1.6,0.9,2.1
			l15.9,15.2c0.6,0.6,1.3,0.8,2.1,0.8c0.8,0,1.5-0.3,2.1-0.9l1.6-1.6l4.3-4.3l3-3c0.6-0.6,0.9-1.3,0.9-2.2
			C181.3,95.7,180.9,94.9,180.3,94.4z M169.4,101.1l-4-3.8l-4.4-4.2l-3.2-3.1l4.6-4.6l3.2,3.1l4.3,4.2l4,3.8l-2.9,2.9L169.4,101.1z"
			/>
	</g>
	<g>
		<path class="st2" d="M162.9,98.5c-0.8,0-1.5-0.3-2.1-0.9c-1.2-1.2-1.2-3.1,0-4.3l6.5-6.5c1.2-1.2,3.1-1.2,4.3,0s1.2,3.1,0,4.3
			l-6.5,6.5C164.5,98.2,163.7,98.5,162.9,98.5z"/>
	</g>
	<g>
		<g>
			<path class="st3" d="M139.6,110.2c0.1-0.1,0.2-0.2,0.3-0.3c1.3-1.3,1.4-3.7,0-5c-1.4-1.3-3.6-1.4-5,0c-0.1,0.1-0.2,0.2-0.3,0.3
				c-1.3,1.3-1.4,3.7,0,5C136,111.5,138.2,111.6,139.6,110.2L139.6,110.2z"/>
		</g>
	</g>
	<g>
		<g>
			<path class="st3" d="M143.8,97c-0.1,0.1-0.2,0.2-0.3,0.3c-1.3,1.3-1.4,3.7,0,5c1.4,1.3,3.6,1.4,5,0c0.1-0.1,0.2-0.2,0.3-0.3
				c1.3-1.3,1.4-3.7,0-5C147.4,95.7,145.2,95.6,143.8,97L143.8,97z"/>
		</g>
	</g>
	<g>
		<g>
			<path class="st3" d="M153.6,110c4.5,0,4.5-7,0-7C149.1,103,149.1,110,153.6,110L153.6,110z"/>
		</g>
	</g>
	<g>
		<g>
			<path class="st3" d="M145.7,119.7c4.5,0,4.5-7,0-7C141.2,112.7,141.1,119.7,145.7,119.7L145.7,119.7z"/>
		</g>
	</g>
	<g>
		<path class="st2" d="M166,124c-0.8,0-1.5-0.3-2.1-0.9c-1.2-1.2-1.2-3.1,0-4.3l11.2-11.2l-4-4c-1.2-1.2-1.2-3.1,0-4.3
			c1.2-1.2,3.1-1.2,4.3,0l6.1,6.1c1.2,1.2,1.2,3.1,0,4.3l-13.3,13.3C167.5,123.7,166.7,124,166,124z"/>
	</g>
	<g>
		<g>
			<path class="st3" d="M150.3,153.8c3.9,0,3.9-6,0-6C146.4,147.7,146.4,153.8,150.3,153.8L150.3,153.8z"/>
		</g>
	</g>
	<g>
		<path class="st4" d="M74.3,18.7c-1-3.8-1.8-7.8-3.4-11.4c-0.4-1-1.8-0.7-1.8,0.3c-0.1,6,0.9,12.9,2.2,18.8c0.2,0.8,1,1.4,1.8,1.6
			c0,0,0.1,0,0.1,0c0.9,0.3,2.1-0.3,2.5-1.2C76.8,24.6,74.9,20.8,74.3,18.7z"/>
	</g>
	<g>
		<path class="st4" d="M88.1,0.9c-0.1-1.1-1.6-1.2-1.9-0.1c-1.7,6.9-1.4,14.2-2.9,21.1c-0.8,3.8,5.5,4.2,5.2,0.4
			C87.9,15.2,88.9,8,88.1,0.9z"/>
	</g>
	<g>
		<path class="st4" d="M104.8,8.8c-2.9,4.3-5.4,9.2-8.1,13.7c-0.8,1.3-0.8,2.7-0.2,4.1c0.1,0.2,0.1,0.3,0.2,0.5
			c0.3,0.7,1.1,1.1,1.8,1.1c0.2,0,0.4,0,0.6,0c0.9-0.1,2-0.7,2.3-1.8c1.7-5.5,3.9-10.8,5.4-16.3C107.1,8.7,105.5,7.8,104.8,8.8z"/>
	</g>
	<g>
		<path class="st4" d="M115.3,27.7c-4,1.6-7.9,3.8-11.8,5.6c-1.2,0.5-1.7,1.4-1.7,2.7c0,0.1,0,0.3,0,0.4c0,0.6,0.5,1.2,1,1.5
			c0.2,0.1,0.3,0.1,0.5,0.2c0.8,0.4,1.9,0.4,2.6-0.2c3.5-2.9,7.2-5.5,10.6-8.5C117.3,28.6,116.3,27.3,115.3,27.7z"/>
	</g>
	<g>
		<path class="st4" d="M165.4,158c-0.6,0-1.3-0.2-1.8-0.7c-1-1-1-2.6,0-3.5l13.2-13.2c1-1,2.6-1,3.5,0c1,1,1,2.6,0,3.5l-13.2,13.2
			C166.7,157.8,166.1,158,165.4,158z"/>
	</g>
	<g>
		<path class="st3" d="M186.5,136.4c-0.6,0-1.3-0.2-1.8-0.7l-10.2-10.2c-1-1-1-2.6,0-3.5c1-1,2.6-1,3.5,0l8.4,8.4l16.6-16.5
			l-26.9-26.9c-1-1-1-2.6,0-3.5c1-1,2.6-1,3.5,0l28.7,28.7c0.5,0.5,0.7,1.1,0.7,1.8c0,0.7-0.3,1.3-0.7,1.8l-20.1,20.1
			C187.8,136.1,187.1,136.4,186.5,136.4z"/>
	</g>
	<g>
		<g>
			<path class="st4" d="M185.3,121.1c3.2,0.6,4.1-4.3,0.9-4.9C183,115.6,182.1,120.5,185.3,121.1L185.3,121.1z"/>
		</g>
	</g>
	<g>
		<g>
			<path class="st4" d="M192.4,114.5c3.2,0,3.2-5,0-5C189.2,109.5,189.2,114.5,192.4,114.5L192.4,114.5z"/>
		</g>
	</g>
</g>
</svg>
