<?xml version="1.0" encoding="utf-8"?>
<!-- Generator: Adobe Illustrator 22.1.0, SVG Export Plug-In . SVG Version: 6.00 Build 0)  -->
<svg version="1.1" id="Layer_1" xmlns="http://www.w3.org/2000/svg" xmlns:xlink="http://www.w3.org/1999/xlink" x="0px" y="0px"
	 viewBox="0 0 208.4 199.6" style="enable-background:new 0 0 208.4 199.6;" xml:space="preserve">
<style type="text/css">
	.st0{fill:url(#SVGID_1_);}
	.st1{fill:#7AE1AA;}
	.st2{fill:#E60028;}
	.st3{fill:#000054;}
	.st4{fill:url(#SVGID_2_);}
	.st5{fill:url(#SVGID_3_);}
	.st6{fill:url(#SVGID_4_);}
	.st7{fill:url(#SVGID_5_);}
	.st8{fill:#FFFFFF;}
</style>
<linearGradient id="SVGID_1_" gradientUnits="userSpaceOnUse" x1="112.6643" y1="46.0701" x2="135.6434" y2="46.0701">
	<stop  offset="0" style="stop-color:#E60028"/>
	<stop  offset="1" style="stop-color:#E60028;stop-opacity:0"/>
</linearGradient>
<path class="st0" d="M124.2,34.6c-6.3,0-11.5,5.1-11.5,11.5c0,6.3,5.1,11.5,11.5,11.5c6.3,0,11.5-5.1,11.5-11.5
	C135.6,39.7,130.5,34.6,124.2,34.6z"/>
<g>
	<g>
		<g>
			<path class="st1" d="M62.6,26.5C62.6,26.5,61.4,0,85,0c16.7,0,21.3,11.8,21.3,21.6c4.1-4.7,9.6-5.7,15.4-1.5
				c3.2,2.3,4.9,7,3.8,12.4c9.4,0.5,13.5,7.9,12.8,14.4c-0.9,9.4-7,13.7-14.6,13.7c-9.1,0-61.2,0-67.4,0C45.9,60.5,40,53.2,40,42.9
				C40,31.9,51.6,23.8,62.6,26.5z"/>
		</g>
		<g>
			<g>
				<g>
					<path class="st2" d="M89.6,72.1c1.1,1.7,1.1,3.8,0,5.5c-0.5,0.7-1.1,1.3-1.8,1.7l-0.3,0.2c-0.5,0.2-1.8,0.6-3.3,0
						c-2-0.7-3.4-2.9-3.2-5.2c0.2-2.3,1.9-4.1,4.2-4.4C87,69.7,88.5,70.5,89.6,72.1z"/>
					<path class="st2" d="M100.3,61.8c0.8,1,0.8,2.2-0.1,3.2c-0.9,1-1.9,1.9-2.8,2.9c-0.8,0.8-1.7,0.8-2.4-0.2
						c-0.6-0.8-1.3-1.6-2.1-2.3c-5-4.1-12-3.4-16.1,1.6c-0.2,0.2-0.3,0.5-0.5,0.7c-0.7,0.9-1.6,1-2.4,0.1C72.9,66.9,72,66,71.1,65
						c-1-1-1-2.3-0.1-3.4c3.8-4.5,8.7-6.8,14.7-6.9C91.6,54.9,96.5,57.3,100.3,61.8z"/>
					<path class="st2" d="M110.3,51.5c0.8,1,0.6,2.3-0.2,3.2c-0.9,0.9-1.8,1.8-2.6,2.7c-1,1-1.9,0.9-2.7-0.2
						c-2.1-3.2-4.8-5.7-8.1-7.6c-10.3-5.8-23.2-2.7-30,7.3c-0.2,0.2-0.3,0.5-0.5,0.7c-0.6,0.7-1.5,0.7-2.1,0.1c-1-1-2.1-2.1-3-3.2
						c-0.8-0.9-0.8-2.1-0.1-3.1c5-6.6,11.4-10.9,19.7-12.4c0.6-0.1,1.2-0.2,1.8-0.3c1.1-0.1,2.2-0.2,3.2-0.2
						C96,38.9,104.1,43.3,110.3,51.5z"/>
				</g>
			</g>
		</g>
		<g>
			<path class="st3" d="M147.5,174.8c0.2-0.2,0.4-0.4,0.6-0.5c-1.8-1.8-3.6-3.6-5.5-5.5H59v-2h81.6c-2-2-4-4-6-6H51v-2h81.6
				c-1.9-1.9-3.8-3.8-5.7-5.7h-4.7H49.1h-5v-5V84.7v-5h5h4.4C40.6,66.8,29.5,55.8,25.3,51.6C4.6,72.2-6.3,104.8,3.9,138.4
				c9,29.5,34.4,54,67.7,59.9c13.9,2.5,27.7,1.6,41.2-2.6c12.3-3.9,23.2-10.2,32.6-18.8H66.5v-2H147.5z"/>
		</g>
		<g>
			<path class="st1" d="M143.7,137.7c-0.1,0-0.2-0.1-0.2-0.2c0-0.1,0.1-0.2,0.2-0.2l-16-16v16h0.9c0.1,0,0.2,0.1,0.2,0.2
				s-0.1,0.2-0.2,0.2h-0.9v8.2l0.5,0.4h0.4c0.1,0,0.2,0.1,0.2,0.2c0,0.1-0.1,0.2-0.2,0.2l23.4,23.4l12.4-12.4l-20.2-20.2H143.7z
				 M130,128.5h-1c-0.1,0-0.2-0.1-0.2-0.2c0-0.1,0.1-0.2,0.2-0.2h1c0.1,0,0.2,0.1,0.2,0.2C130.2,128.4,130.1,128.5,130,128.5z
				 M132.5,146.8h-1c-0.1,0-0.2-0.1-0.2-0.2c0-0.1,0.1-0.2,0.2-0.2h1c0.1,0,0.2,0.1,0.2,0.2C132.8,146.7,132.7,146.8,132.5,146.8z
				 M132.6,137.7h-1c-0.1,0-0.2-0.1-0.2-0.2s0.1-0.2,0.2-0.2h1c0.1,0,0.2,0.1,0.2,0.2S132.8,137.7,132.6,137.7z M133.9,128.5h-1
				c-0.1,0-0.2-0.1-0.2-0.2c0-0.1,0.1-0.2,0.2-0.2h1c0.1,0,0.2,0.1,0.2,0.2C134.1,128.4,134,128.5,133.9,128.5z M136.5,146.8h-1
				c-0.1,0-0.2-0.1-0.2-0.2c0-0.1,0.1-0.2,0.2-0.2h1c0.1,0,0.2,0.1,0.2,0.2C136.8,146.7,136.7,146.8,136.5,146.8z M136.7,137.7h-1
				c-0.1,0-0.2-0.1-0.2-0.2s0.1-0.2,0.2-0.2h1c0.1,0,0.2,0.1,0.2,0.2S136.8,137.7,136.7,137.7z M139.3,146.6c0-0.1,0.1-0.2,0.2-0.2
				h1c0.1,0,0.2,0.1,0.2,0.2c0,0.1-0.1,0.2-0.2,0.2h-1C139.4,146.8,139.3,146.7,139.3,146.6z M140.7,156h-1c-0.1,0-0.2-0.1-0.2-0.2
				s0.1-0.2,0.2-0.2h1c0.1,0,0.2,0.1,0.2,0.2S140.8,156,140.7,156z M140.7,137.7h-1c-0.1,0-0.2-0.1-0.2-0.2s0.1-0.2,0.2-0.2h1
				c0.1,0,0.2,0.1,0.2,0.2S140.8,137.7,140.7,137.7z M159.8,155.5h1c0.1,0,0.2,0.1,0.2,0.2s-0.1,0.2-0.2,0.2h-1
				c-0.1,0-0.2-0.1-0.2-0.2S159.7,155.5,159.8,155.5z M155.8,155.5h1c0.1,0,0.2,0.1,0.2,0.2s-0.1,0.2-0.2,0.2h-1
				c-0.1,0-0.2-0.1-0.2-0.2S155.7,155.5,155.8,155.5z M155.4,164.7h1c0.1,0,0.2,0.1,0.2,0.2c0,0.1-0.1,0.2-0.2,0.2h-1
				c-0.1,0-0.2-0.1-0.2-0.2C155.2,164.8,155.3,164.7,155.4,164.7z M153,155.8c0,0.1-0.1,0.2-0.2,0.2h-1c-0.1,0-0.2-0.1-0.2-0.2
				s0.1-0.2,0.2-0.2h1C152.9,155.5,153,155.6,153,155.8z M151.4,146.3h1c0.1,0,0.2,0.1,0.2,0.2c0,0.1-0.1,0.2-0.2,0.2h-1
				c-0.1,0-0.2-0.1-0.2-0.2C151.2,146.5,151.3,146.3,151.4,146.3z M151.4,164.7h1c0.1,0,0.2,0.1,0.2,0.2c0,0.1-0.1,0.2-0.2,0.2h-1
				c-0.1,0-0.2-0.1-0.2-0.2C151.2,164.8,151.3,164.7,151.4,164.7z M149,155.8c0,0.1-0.1,0.2-0.2,0.2h-1c-0.1,0-0.2-0.1-0.2-0.2
				s0.1-0.2,0.2-0.2h1C148.9,155.5,149,155.6,149,155.8z M147.5,146.3h1c0.1,0,0.2,0.1,0.2,0.2c0,0.1-0.1,0.2-0.2,0.2h-1
				c-0.1,0-0.2-0.1-0.2-0.2C147.2,146.5,147.3,146.3,147.5,146.3z M147.5,164.7h1c0.1,0,0.2,0.1,0.2,0.2c0,0.1-0.1,0.2-0.2,0.2h-1
				c-0.1,0-0.2-0.1-0.2-0.2C147.2,164.8,147.3,164.7,147.5,164.7z M145,155.8c0,0.1-0.1,0.2-0.2,0.2h-1c-0.1,0-0.2-0.1-0.2-0.2
				s0.1-0.2,0.2-0.2h1C144.9,155.5,145,155.6,145,155.8z M144.7,146.6c0,0.1-0.1,0.2-0.2,0.2h-1c-0.1,0-0.2-0.1-0.2-0.2
				c0-0.1,0.1-0.2,0.2-0.2h1C144.6,146.3,144.7,146.5,144.7,146.6z"/>
			<path class="st1" d="M164.2,128.5c-0.1,0-0.2-0.1-0.2-0.2c0,0,0-0.1,0-0.1l-5.1-5.1l-5.2,5.2c0,0.1-0.1,0.2-0.2,0.2l-6.9,6.9
				l1.8,1.8h0.4c0.1,0,0.2,0.1,0.2,0.2c0,0.1-0.1,0.2-0.2,0.2l17.9,17.9l8.7-8.7h0c-0.1,0-0.2-0.1-0.2-0.2c0-0.1,0.1-0.2,0.2-0.2
				h0.5l3.2-3.2l-14.7-14.7H164.2z M152.8,137.7h-1c-0.1,0-0.2-0.1-0.2-0.2s0.1-0.2,0.2-0.2h1c0.1,0,0.2,0.1,0.2,0.2
				S152.9,137.7,152.8,137.7z M156.8,137.7h-1c-0.1,0-0.2-0.1-0.2-0.2s0.1-0.2,0.2-0.2h1c0.1,0,0.2,0.1,0.2,0.2
				S156.9,137.7,156.8,137.7z M157.4,128.5h-1c-0.1,0-0.2-0.1-0.2-0.2c0-0.1,0.1-0.2,0.2-0.2h1c0.1,0,0.2,0.1,0.2,0.2
				C157.6,128.4,157.5,128.5,157.4,128.5z M171.9,137.2h1c0.1,0,0.2,0.1,0.2,0.2s-0.1,0.2-0.2,0.2h-1c-0.1,0-0.2-0.1-0.2-0.2
				S171.8,137.2,171.9,137.2z M171.3,146.3h1c0.1,0,0.2,0.1,0.2,0.2c0,0.1-0.1,0.2-0.2,0.2h-1c-0.1,0-0.2-0.1-0.2-0.2
				C171.1,146.5,171.2,146.3,171.3,146.3z M167.9,137.2h1c0.1,0,0.2,0.1,0.2,0.2s-0.1,0.2-0.2,0.2h-1c-0.1,0-0.2-0.1-0.2-0.2
				S167.7,137.2,167.9,137.2z M167.4,146.3h1c0.1,0,0.2,0.1,0.2,0.2c0,0.1-0.1,0.2-0.2,0.2h-1c-0.1,0-0.2-0.1-0.2-0.2
				C167.1,146.5,167.2,146.3,167.4,146.3z M160.4,146.8h-1c-0.1,0-0.2-0.1-0.2-0.2c0-0.1,0.1-0.2,0.2-0.2h1c0.1,0,0.2,0.1,0.2,0.2
				C160.6,146.7,160.5,146.8,160.4,146.8z M160.8,137.7h-1c-0.1,0-0.2-0.1-0.2-0.2s0.1-0.2,0.2-0.2h1c0.1,0,0.2,0.1,0.2,0.2
				S161,137.7,160.8,137.7z M161.3,128.5h-1c-0.1,0-0.2-0.1-0.2-0.2c0-0.1,0.1-0.2,0.2-0.2h1c0.1,0,0.2,0.1,0.2,0.2
				C161.5,128.4,161.4,128.5,161.3,128.5z M164.4,146.8h-1c-0.1,0-0.2-0.1-0.2-0.2c0-0.1,0.1-0.2,0.2-0.2h1c0.1,0,0.2,0.1,0.2,0.2
				C164.6,146.7,164.5,146.8,164.4,146.8z M165.1,137.4c0,0.1-0.1,0.2-0.2,0.2h-1c-0.1,0-0.2-0.1-0.2-0.2s0.1-0.2,0.2-0.2h1
				C165,137.2,165.1,137.3,165.1,137.4z"/>
			<path class="st1" d="M174.5,110.1c-0.1,0-0.2-0.1-0.2-0.2c0-0.1,0.1-0.2,0.2-0.2h0.3l-8.7-8.7h-0.5c-0.1,0-0.2-0.1-0.2-0.2
				c0-0.1,0.1-0.2,0.2-0.2h0l-7.9-7.9h-0.1c-0.1,0-0.2-0.1-0.2-0.2c0,0,0,0,0-0.1l-4.8-4.8l-12.4,12.4l9.8,9.8h1
				c0.1,0,0.2,0.1,0.2,0.2c0,0.1-0.1,0.2-0.2,0.2h-0.5l17.9,17.9h0.6c0.1,0,0.2,0.1,0.2,0.2c0,0.1-0.1,0.2-0.2,0.2H169l12.4,12.4
				l3.2-3.2H184c-0.1,0-0.2-0.1-0.2-0.2s0.1-0.2,0.2-0.2h1c0,0,0,0,0,0l8.7-8.7l-18.4-18.4H174.5z M142.8,100.9h-1
				c-0.1,0-0.2-0.1-0.2-0.2c0-0.1,0.1-0.2,0.2-0.2h1c0.1,0,0.2,0.1,0.2,0.2C143.1,100.8,143,100.9,142.8,100.9z M146.8,100.9h-1
				c-0.1,0-0.2-0.1-0.2-0.2c0-0.1,0.1-0.2,0.2-0.2h1c0.1,0,0.2,0.1,0.2,0.2C147.1,100.8,146.9,100.9,146.8,100.9z M150.8,100.9h-1
				c-0.1,0-0.2-0.1-0.2-0.2c0-0.1,0.1-0.2,0.2-0.2h1c0.1,0,0.2,0.1,0.2,0.2C151,100.8,150.9,100.9,150.8,100.9z M150.8,92.6h-1
				c-0.1,0-0.2-0.1-0.2-0.2c0-0.1,0.1-0.2,0.2-0.2h1c0.1,0,0.2,0.1,0.2,0.2C151,92.5,150.9,92.6,150.8,92.6z M161.7,100.4h1
				c0.1,0,0.2,0.1,0.2,0.2c0,0.1-0.1,0.2-0.2,0.2h-1c-0.1,0-0.2-0.1-0.2-0.2C161.4,100.6,161.5,100.4,161.7,100.4z M153.7,92.1h1
				c0.1,0,0.2,0.1,0.2,0.2c0,0.1-0.1,0.2-0.2,0.2h-1c-0.1,0-0.2-0.1-0.2-0.2C153.5,92.2,153.6,92.1,153.7,92.1z M153.5,100.7
				c0-0.1,0.1-0.2,0.2-0.2h1c0.1,0,0.2,0.1,0.2,0.2c0,0.1-0.1,0.2-0.2,0.2h-1C153.6,100.9,153.5,100.8,153.5,100.7z M155.2,110.1h-1
				c-0.1,0-0.2-0.1-0.2-0.2c0-0.1,0.1-0.2,0.2-0.2h1c0.1,0,0.2,0.1,0.2,0.2C155.4,110,155.3,110.1,155.2,110.1z M157.5,100.7
				c0-0.1,0.1-0.2,0.2-0.2h1c0.1,0,0.2,0.1,0.2,0.2c0,0.1-0.1,0.2-0.2,0.2h-1C157.6,100.9,157.5,100.8,157.5,100.7z M159.2,110.1h-1
				c-0.1,0-0.2-0.1-0.2-0.2c0-0.1,0.1-0.2,0.2-0.2h1c0.1,0,0.2,0.1,0.2,0.2C159.5,110,159.4,110.1,159.2,110.1z M162.7,119.3h-1
				c-0.1,0-0.2-0.1-0.2-0.2c0-0.1,0.1-0.2,0.2-0.2h1c0.1,0,0.2,0.1,0.2,0.2C162.9,119.2,162.8,119.3,162.7,119.3z M163.3,110.1h-1
				c-0.1,0-0.2-0.1-0.2-0.2c0-0.1,0.1-0.2,0.2-0.2h1c0.1,0,0.2,0.1,0.2,0.2C163.6,110,163.4,110.1,163.3,110.1z M166.6,119.3h-1
				c-0.1,0-0.2-0.1-0.2-0.2c0-0.1,0.1-0.2,0.2-0.2h1c0.1,0,0.2,0.1,0.2,0.2C166.9,119.2,166.8,119.3,166.6,119.3z M167.4,110.1h-1
				c-0.1,0-0.2-0.1-0.2-0.2c0-0.1,0.1-0.2,0.2-0.2h1c0.1,0,0.2,0.1,0.2,0.2C167.6,110,167.5,110.1,167.4,110.1z M170.6,119.3h-1
				c-0.1,0-0.2-0.1-0.2-0.2c0-0.1,0.1-0.2,0.2-0.2h1c0.1,0,0.2,0.1,0.2,0.2C170.8,119.2,170.7,119.3,170.6,119.3z M171.4,110.1h-1
				c-0.1,0-0.2-0.1-0.2-0.2c0-0.1,0.1-0.2,0.2-0.2h1c0.1,0,0.2,0.1,0.2,0.2C171.7,110,171.6,110.1,171.4,110.1z M173,128.5h-1
				c-0.1,0-0.2-0.1-0.2-0.2c0-0.1,0.1-0.2,0.2-0.2h1c0.1,0,0.2,0.1,0.2,0.2C173.3,128.4,173.1,128.5,173,128.5z M174.6,119.3h-1
				c-0.1,0-0.2-0.1-0.2-0.2c0-0.1,0.1-0.2,0.2-0.2h1c0.1,0,0.2,0.1,0.2,0.2C174.8,119.2,174.7,119.3,174.6,119.3z M191.6,128h1
				c0.1,0,0.2,0.1,0.2,0.2c0,0.1-0.1,0.2-0.2,0.2h-1c-0.1,0-0.2-0.1-0.2-0.2C191.3,128.1,191.5,128,191.6,128z M187.7,128h1
				c0.1,0,0.2,0.1,0.2,0.2c0,0.1-0.1,0.2-0.2,0.2h-1c-0.1,0-0.2-0.1-0.2-0.2C187.4,128.1,187.5,128,187.7,128z M183.8,128h1
				c0.1,0,0.2,0.1,0.2,0.2c0,0.1-0.1,0.2-0.2,0.2h-1c-0.1,0-0.2-0.1-0.2-0.2C183.5,128.1,183.6,128,183.8,128z M181.5,118.8h1
				c0.1,0,0.2,0.1,0.2,0.2c0,0.1-0.1,0.2-0.2,0.2h-1c-0.1,0-0.2-0.1-0.2-0.2C181.3,118.9,181.4,118.8,181.5,118.8z M181.2,137.4
				c0,0.1-0.1,0.2-0.2,0.2h-1c-0.1,0-0.2-0.1-0.2-0.2s0.1-0.2,0.2-0.2h1C181.1,137.2,181.2,137.3,181.2,137.4z M179.9,128h1
				c0.1,0,0.2,0.1,0.2,0.2c0,0.1-0.1,0.2-0.2,0.2h-1c-0.1,0-0.2-0.1-0.2-0.2C179.6,128.1,179.7,128,179.9,128z M177.5,118.8h1
				c0.1,0,0.2,0.1,0.2,0.2c0,0.1-0.1,0.2-0.2,0.2h-1c-0.1,0-0.2-0.1-0.2-0.2C177.3,118.9,177.4,118.8,177.5,118.8z M175.9,128h1
				c0.1,0,0.2,0.1,0.2,0.2c0,0.1-0.1,0.2-0.2,0.2h-1c-0.1,0-0.2-0.1-0.2-0.2C175.7,128.1,175.8,128,175.9,128z"/>
			<path class="st1" d="M180.5,86l-6.1,6.1h0.2c0.1,0,0.2,0.1,0.2,0.2c0,0.1-0.1,0.2-0.2,0.2h-0.7l-5.7,5.7l2.1,2.1h0.3
				c0.1,0,0.2,0.1,0.2,0.2c0,0.1-0.1,0.2-0.1,0.2l8.7,8.7h0.1c0.1,0,0.2,0.1,0.2,0.2c0,0,0,0.1,0,0.1l16.2,16.2l12.4-12.4L180.5,86z
				 M174.6,100.9h-1c-0.1,0-0.2-0.1-0.2-0.2c0-0.1,0.1-0.2,0.2-0.2h1c0.1,0,0.2,0.1,0.2,0.2C174.8,100.8,174.7,100.9,174.6,100.9z
				 M178.5,100.9h-1c-0.1,0-0.2-0.1-0.2-0.2c0-0.1,0.1-0.2,0.2-0.2h1c0.1,0,0.2,0.1,0.2,0.2C178.8,100.8,178.7,100.9,178.5,100.9z
				 M178.5,92.6h-1c-0.1,0-0.2-0.1-0.2-0.2c0-0.1,0.1-0.2,0.2-0.2h1c0.1,0,0.2,0.1,0.2,0.2C178.8,92.5,178.7,92.6,178.5,92.6z
				 M193.4,100.4h1c0.1,0,0.2,0.1,0.2,0.2c0,0.1-0.1,0.2-0.2,0.2h-1c-0.1,0-0.2-0.1-0.2-0.2C193.1,100.6,193.3,100.4,193.4,100.4z
				 M189.4,100.4h1c0.1,0,0.2,0.1,0.2,0.2c0,0.1-0.1,0.2-0.2,0.2h-1c-0.1,0-0.2-0.1-0.2-0.2C189.2,100.6,189.3,100.4,189.4,100.4z
				 M185.5,92.1h1c0.1,0,0.2,0.1,0.2,0.2c0,0.1-0.1,0.2-0.2,0.2h-1c-0.1,0-0.2-0.1-0.2-0.2C185.2,92.2,185.3,92.1,185.5,92.1z
				 M181.5,92.1h1c0.1,0,0.2,0.1,0.2,0.2c0,0.1-0.1,0.2-0.2,0.2h-1c-0.1,0-0.2-0.1-0.2-0.2C181.3,92.2,181.4,92.1,181.5,92.1z
				 M181.3,100.7c0-0.1,0.1-0.2,0.2-0.2h1c0.1,0,0.2,0.1,0.2,0.2c0,0.1-0.1,0.2-0.2,0.2h-1C181.4,100.9,181.3,100.8,181.3,100.7z
				 M183.7,110.1h-1c-0.1,0-0.2-0.1-0.2-0.2c0-0.1,0.1-0.2,0.2-0.2h1c0.1,0,0.2,0.1,0.2,0.2C183.9,110,183.8,110.1,183.7,110.1z
				 M185.5,100.9c-0.1,0-0.2-0.1-0.2-0.2c0-0.1,0.1-0.2,0.2-0.2h1c0.1,0,0.2,0.1,0.2,0.2c0,0.1-0.1,0.2-0.2,0.2H185.5z M187.7,110.1
				h-1c-0.1,0-0.2-0.1-0.2-0.2c0-0.1,0.1-0.2,0.2-0.2h1c0.1,0,0.2,0.1,0.2,0.2C188,110,187.9,110.1,187.7,110.1z M190.4,119.3h-1
				c-0.1,0-0.2-0.1-0.2-0.2c0-0.1,0.1-0.2,0.2-0.2h1c0.1,0,0.2,0.1,0.2,0.2C190.7,119.2,190.6,119.3,190.4,119.3z M191.8,110.1h-1
				c-0.1,0-0.2-0.1-0.2-0.2c0-0.1,0.1-0.2,0.2-0.2h1c0.1,0,0.2,0.1,0.2,0.2C192.1,110,191.9,110.1,191.8,110.1z M194.4,119.3h-1
				c-0.1,0-0.2-0.1-0.2-0.2c0-0.1,0.1-0.2,0.2-0.2h1c0.1,0,0.2,0.1,0.2,0.2C194.6,119.2,194.5,119.3,194.4,119.3z M195.9,110.1h-1
				c-0.1,0-0.2-0.1-0.2-0.2c0-0.1,0.1-0.2,0.2-0.2h1c0.1,0,0.2,0.1,0.2,0.2C196.1,110,196,110.1,195.9,110.1z M198.4,119.3h-1
				c-0.1,0-0.2-0.1-0.2-0.2c0-0.1,0.1-0.2,0.2-0.2h1c0.1,0,0.2,0.1,0.2,0.2C198.6,119.2,198.5,119.3,198.4,119.3z M200,110.1h-1
				c-0.1,0-0.2-0.1-0.2-0.2c0-0.1,0.1-0.2,0.2-0.2h1c0.1,0,0.2,0.1,0.2,0.2C200.2,110,200.1,110.1,200,110.1z M202.3,119.3h-1
				c-0.1,0-0.2-0.1-0.2-0.2c0-0.1,0.1-0.2,0.2-0.2h1c0.1,0,0.2,0.1,0.2,0.2C202.6,119.2,202.5,119.3,202.3,119.3z M204,110.1h-1
				c-0.1,0-0.2-0.1-0.2-0.2c0-0.1,0.1-0.2,0.2-0.2h1c0.1,0,0.2,0.1,0.2,0.2C204.3,110,204.2,110.1,204,110.1z"/>
			<linearGradient id="SVGID_2_" gradientUnits="userSpaceOnUse" x1="134.4639" y1="160.4952" x2="149.5181" y2="133.2245">
				<stop  offset="0" style="stop-color:#000053;stop-opacity:0.5"/>
				<stop  offset="0.1278" style="stop-color:#313174;stop-opacity:0.4361"/>
				<stop  offset="0.3065" style="stop-color:#6F6F9E;stop-opacity:0.3468"/>
				<stop  offset="0.478" style="stop-color:#A2A2C0;stop-opacity:0.261"/>
				<stop  offset="0.6375" style="stop-color:#CACADC;stop-opacity:0.1812"/>
				<stop  offset="0.7825" style="stop-color:#E7E7EF;stop-opacity:0.1087"/>
				<stop  offset="0.9081" style="stop-color:#F9F9FB;stop-opacity:4.596421e-02"/>
				<stop  offset="1" style="stop-color:#FFFFFF;stop-opacity:0"/>
			</linearGradient>
			<path class="st4" d="M143.7,137.7c-0.1,0-0.2-0.1-0.2-0.2c0-0.1,0.1-0.2,0.2-0.2l-16-16v16h0.9c0.1,0,0.2,0.1,0.2,0.2
				s-0.1,0.2-0.2,0.2h-0.9v8.2l0.5,0.4h0.4c0.1,0,0.2,0.1,0.2,0.2c0,0.1-0.1,0.2-0.2,0.2l23.4,23.4l12.4-12.4l-20.2-20.2H143.7z
				 M130,128.5h-1c-0.1,0-0.2-0.1-0.2-0.2c0-0.1,0.1-0.2,0.2-0.2h1c0.1,0,0.2,0.1,0.2,0.2C130.2,128.4,130.1,128.5,130,128.5z
				 M132.5,146.8h-1c-0.1,0-0.2-0.1-0.2-0.2c0-0.1,0.1-0.2,0.2-0.2h1c0.1,0,0.2,0.1,0.2,0.2C132.8,146.7,132.7,146.8,132.5,146.8z
				 M132.6,137.7h-1c-0.1,0-0.2-0.1-0.2-0.2s0.1-0.2,0.2-0.2h1c0.1,0,0.2,0.1,0.2,0.2S132.8,137.7,132.6,137.7z M133.9,128.5h-1
				c-0.1,0-0.2-0.1-0.2-0.2c0-0.1,0.1-0.2,0.2-0.2h1c0.1,0,0.2,0.1,0.2,0.2C134.1,128.4,134,128.5,133.9,128.5z M136.5,146.8h-1
				c-0.1,0-0.2-0.1-0.2-0.2c0-0.1,0.1-0.2,0.2-0.2h1c0.1,0,0.2,0.1,0.2,0.2C136.8,146.7,136.7,146.8,136.5,146.8z M136.7,137.7h-1
				c-0.1,0-0.2-0.1-0.2-0.2s0.1-0.2,0.2-0.2h1c0.1,0,0.2,0.1,0.2,0.2S136.8,137.7,136.7,137.7z M139.3,146.6c0-0.1,0.1-0.2,0.2-0.2
				h1c0.1,0,0.2,0.1,0.2,0.2c0,0.1-0.1,0.2-0.2,0.2h-1C139.4,146.8,139.3,146.7,139.3,146.6z M140.7,156h-1c-0.1,0-0.2-0.1-0.2-0.2
				s0.1-0.2,0.2-0.2h1c0.1,0,0.2,0.1,0.2,0.2S140.8,156,140.7,156z M140.7,137.7h-1c-0.1,0-0.2-0.1-0.2-0.2s0.1-0.2,0.2-0.2h1
				c0.1,0,0.2,0.1,0.2,0.2S140.8,137.7,140.7,137.7z M159.8,155.5h1c0.1,0,0.2,0.1,0.2,0.2s-0.1,0.2-0.2,0.2h-1
				c-0.1,0-0.2-0.1-0.2-0.2S159.7,155.5,159.8,155.5z M155.8,155.5h1c0.1,0,0.2,0.1,0.2,0.2s-0.1,0.2-0.2,0.2h-1
				c-0.1,0-0.2-0.1-0.2-0.2S155.7,155.5,155.8,155.5z M155.4,164.7h1c0.1,0,0.2,0.1,0.2,0.2c0,0.1-0.1,0.2-0.2,0.2h-1
				c-0.1,0-0.2-0.1-0.2-0.2C155.2,164.8,155.3,164.7,155.4,164.7z M153,155.8c0,0.1-0.1,0.2-0.2,0.2h-1c-0.1,0-0.2-0.1-0.2-0.2
				s0.1-0.2,0.2-0.2h1C152.9,155.5,153,155.6,153,155.8z M151.4,146.3h1c0.1,0,0.2,0.1,0.2,0.2c0,0.1-0.1,0.2-0.2,0.2h-1
				c-0.1,0-0.2-0.1-0.2-0.2C151.2,146.5,151.3,146.3,151.4,146.3z M151.4,164.7h1c0.1,0,0.2,0.1,0.2,0.2c0,0.1-0.1,0.2-0.2,0.2h-1
				c-0.1,0-0.2-0.1-0.2-0.2C151.2,164.8,151.3,164.7,151.4,164.7z M149,155.8c0,0.1-0.1,0.2-0.2,0.2h-1c-0.1,0-0.2-0.1-0.2-0.2
				s0.1-0.2,0.2-0.2h1C148.9,155.5,149,155.6,149,155.8z M147.5,146.3h1c0.1,0,0.2,0.1,0.2,0.2c0,0.1-0.1,0.2-0.2,0.2h-1
				c-0.1,0-0.2-0.1-0.2-0.2C147.2,146.5,147.3,146.3,147.5,146.3z M147.5,164.7h1c0.1,0,0.2,0.1,0.2,0.2c0,0.1-0.1,0.2-0.2,0.2h-1
				c-0.1,0-0.2-0.1-0.2-0.2C147.2,164.8,147.3,164.7,147.5,164.7z M145,155.8c0,0.1-0.1,0.2-0.2,0.2h-1c-0.1,0-0.2-0.1-0.2-0.2
				s0.1-0.2,0.2-0.2h1C144.9,155.5,145,155.6,145,155.8z M144.7,146.6c0,0.1-0.1,0.2-0.2,0.2h-1c-0.1,0-0.2-0.1-0.2-0.2
				c0-0.1,0.1-0.2,0.2-0.2h1C144.6,146.3,144.7,146.5,144.7,146.6z"/>
			<linearGradient id="SVGID_3_" gradientUnits="userSpaceOnUse" x1="156.8382" y1="150.0828" x2="168.7607" y2="128.4852">
				<stop  offset="0" style="stop-color:#000053;stop-opacity:0.5"/>
				<stop  offset="0.1278" style="stop-color:#313174;stop-opacity:0.4361"/>
				<stop  offset="0.3065" style="stop-color:#6F6F9E;stop-opacity:0.3468"/>
				<stop  offset="0.478" style="stop-color:#A2A2C0;stop-opacity:0.261"/>
				<stop  offset="0.6375" style="stop-color:#CACADC;stop-opacity:0.1812"/>
				<stop  offset="0.7825" style="stop-color:#E7E7EF;stop-opacity:0.1087"/>
				<stop  offset="0.9081" style="stop-color:#F9F9FB;stop-opacity:4.596421e-02"/>
				<stop  offset="1" style="stop-color:#FFFFFF;stop-opacity:0"/>
			</linearGradient>
			<path class="st5" d="M164.2,128.5c-0.1,0-0.2-0.1-0.2-0.2c0,0,0-0.1,0-0.1l-5.1-5.1l-5.2,5.2c0,0.1-0.1,0.2-0.2,0.2l-6.9,6.9
				l1.8,1.8h0.4c0.1,0,0.2,0.1,0.2,0.2c0,0.1-0.1,0.2-0.2,0.2l17.9,17.9l8.7-8.7h0c-0.1,0-0.2-0.1-0.2-0.2c0-0.1,0.1-0.2,0.2-0.2
				h0.5l3.2-3.2l-14.7-14.7H164.2z M152.8,137.7h-1c-0.1,0-0.2-0.1-0.2-0.2s0.1-0.2,0.2-0.2h1c0.1,0,0.2,0.1,0.2,0.2
				S152.9,137.7,152.8,137.7z M156.8,137.7h-1c-0.1,0-0.2-0.1-0.2-0.2s0.1-0.2,0.2-0.2h1c0.1,0,0.2,0.1,0.2,0.2
				S156.9,137.7,156.8,137.7z M157.4,128.5h-1c-0.1,0-0.2-0.1-0.2-0.2c0-0.1,0.1-0.2,0.2-0.2h1c0.1,0,0.2,0.1,0.2,0.2
				C157.6,128.4,157.5,128.5,157.4,128.5z M171.9,137.2h1c0.1,0,0.2,0.1,0.2,0.2s-0.1,0.2-0.2,0.2h-1c-0.1,0-0.2-0.1-0.2-0.2
				S171.8,137.2,171.9,137.2z M171.3,146.3h1c0.1,0,0.2,0.1,0.2,0.2c0,0.1-0.1,0.2-0.2,0.2h-1c-0.1,0-0.2-0.1-0.2-0.2
				C171.1,146.5,171.2,146.3,171.3,146.3z M167.9,137.2h1c0.1,0,0.2,0.1,0.2,0.2s-0.1,0.2-0.2,0.2h-1c-0.1,0-0.2-0.1-0.2-0.2
				S167.7,137.2,167.9,137.2z M167.4,146.3h1c0.1,0,0.2,0.1,0.2,0.2c0,0.1-0.1,0.2-0.2,0.2h-1c-0.1,0-0.2-0.1-0.2-0.2
				C167.1,146.5,167.2,146.3,167.4,146.3z M160.4,146.8h-1c-0.1,0-0.2-0.1-0.2-0.2c0-0.1,0.1-0.2,0.2-0.2h1c0.1,0,0.2,0.1,0.2,0.2
				C160.6,146.7,160.5,146.8,160.4,146.8z M160.8,137.7h-1c-0.1,0-0.2-0.1-0.2-0.2s0.1-0.2,0.2-0.2h1c0.1,0,0.2,0.1,0.2,0.2
				S161,137.7,160.8,137.7z M161.3,128.5h-1c-0.1,0-0.2-0.1-0.2-0.2c0-0.1,0.1-0.2,0.2-0.2h1c0.1,0,0.2,0.1,0.2,0.2
				C161.5,128.4,161.4,128.5,161.3,128.5z M164.4,146.8h-1c-0.1,0-0.2-0.1-0.2-0.2c0-0.1,0.1-0.2,0.2-0.2h1c0.1,0,0.2,0.1,0.2,0.2
				C164.6,146.7,164.5,146.8,164.4,146.8z M165.1,137.4c0,0.1-0.1,0.2-0.2,0.2h-1c-0.1,0-0.2-0.1-0.2-0.2s0.1-0.2,0.2-0.2h1
				C165,137.2,165.1,137.3,165.1,137.4z"/>
			<linearGradient id="SVGID_4_" gradientUnits="userSpaceOnUse" x1="159.0969" y1="128.5662" x2="174.9735" y2="99.8058">
				<stop  offset="0" style="stop-color:#000053;stop-opacity:0.5"/>
				<stop  offset="0.1278" style="stop-color:#313174;stop-opacity:0.4361"/>
				<stop  offset="0.3065" style="stop-color:#6F6F9E;stop-opacity:0.3468"/>
				<stop  offset="0.478" style="stop-color:#A2A2C0;stop-opacity:0.261"/>
				<stop  offset="0.6375" style="stop-color:#CACADC;stop-opacity:0.1812"/>
				<stop  offset="0.7825" style="stop-color:#E7E7EF;stop-opacity:0.1087"/>
				<stop  offset="0.9081" style="stop-color:#F9F9FB;stop-opacity:4.596421e-02"/>
				<stop  offset="1" style="stop-color:#FFFFFF;stop-opacity:0"/>
			</linearGradient>
			<path class="st6" d="M174.5,110.1c-0.1,0-0.2-0.1-0.2-0.2c0-0.1,0.1-0.2,0.2-0.2h0.3l-8.7-8.7h-0.5c-0.1,0-0.2-0.1-0.2-0.2
				c0-0.1,0.1-0.2,0.2-0.2h0l-7.9-7.9h-0.1c-0.1,0-0.2-0.1-0.2-0.2c0,0,0,0,0-0.1l-4.8-4.8l-12.4,12.4l9.8,9.8h1
				c0.1,0,0.2,0.1,0.2,0.2c0,0.1-0.1,0.2-0.2,0.2h-0.5l17.9,17.9h0.6c0.1,0,0.2,0.1,0.2,0.2c0,0.1-0.1,0.2-0.2,0.2H169l12.4,12.4
				l3.2-3.2H184c-0.1,0-0.2-0.1-0.2-0.2s0.1-0.2,0.2-0.2h1c0,0,0,0,0,0l8.7-8.7l-18.4-18.4H174.5z M142.8,100.9h-1
				c-0.1,0-0.2-0.1-0.2-0.2c0-0.1,0.1-0.2,0.2-0.2h1c0.1,0,0.2,0.1,0.2,0.2C143.1,100.8,143,100.9,142.8,100.9z M146.8,100.9h-1
				c-0.1,0-0.2-0.1-0.2-0.2c0-0.1,0.1-0.2,0.2-0.2h1c0.1,0,0.2,0.1,0.2,0.2C147.1,100.8,146.9,100.9,146.8,100.9z M150.8,100.9h-1
				c-0.1,0-0.2-0.1-0.2-0.2c0-0.1,0.1-0.2,0.2-0.2h1c0.1,0,0.2,0.1,0.2,0.2C151,100.8,150.9,100.9,150.8,100.9z M150.8,92.6h-1
				c-0.1,0-0.2-0.1-0.2-0.2c0-0.1,0.1-0.2,0.2-0.2h1c0.1,0,0.2,0.1,0.2,0.2C151,92.5,150.9,92.6,150.8,92.6z M161.7,100.4h1
				c0.1,0,0.2,0.1,0.2,0.2c0,0.1-0.1,0.2-0.2,0.2h-1c-0.1,0-0.2-0.1-0.2-0.2C161.4,100.6,161.5,100.4,161.7,100.4z M153.7,92.1h1
				c0.1,0,0.2,0.1,0.2,0.2c0,0.1-0.1,0.2-0.2,0.2h-1c-0.1,0-0.2-0.1-0.2-0.2C153.5,92.2,153.6,92.1,153.7,92.1z M153.5,100.7
				c0-0.1,0.1-0.2,0.2-0.2h1c0.1,0,0.2,0.1,0.2,0.2c0,0.1-0.1,0.2-0.2,0.2h-1C153.6,100.9,153.5,100.8,153.5,100.7z M155.2,110.1h-1
				c-0.1,0-0.2-0.1-0.2-0.2c0-0.1,0.1-0.2,0.2-0.2h1c0.1,0,0.2,0.1,0.2,0.2C155.4,110,155.3,110.1,155.2,110.1z M157.5,100.7
				c0-0.1,0.1-0.2,0.2-0.2h1c0.1,0,0.2,0.1,0.2,0.2c0,0.1-0.1,0.2-0.2,0.2h-1C157.6,100.9,157.5,100.8,157.5,100.7z M159.2,110.1h-1
				c-0.1,0-0.2-0.1-0.2-0.2c0-0.1,0.1-0.2,0.2-0.2h1c0.1,0,0.2,0.1,0.2,0.2C159.5,110,159.4,110.1,159.2,110.1z M162.7,119.3h-1
				c-0.1,0-0.2-0.1-0.2-0.2c0-0.1,0.1-0.2,0.2-0.2h1c0.1,0,0.2,0.1,0.2,0.2C162.9,119.2,162.8,119.3,162.7,119.3z M163.3,110.1h-1
				c-0.1,0-0.2-0.1-0.2-0.2c0-0.1,0.1-0.2,0.2-0.2h1c0.1,0,0.2,0.1,0.2,0.2C163.6,110,163.4,110.1,163.3,110.1z M166.6,119.3h-1
				c-0.1,0-0.2-0.1-0.2-0.2c0-0.1,0.1-0.2,0.2-0.2h1c0.1,0,0.2,0.1,0.2,0.2C166.9,119.2,166.8,119.3,166.6,119.3z M167.4,110.1h-1
				c-0.1,0-0.2-0.1-0.2-0.2c0-0.1,0.1-0.2,0.2-0.2h1c0.1,0,0.2,0.1,0.2,0.2C167.6,110,167.5,110.1,167.4,110.1z M170.6,119.3h-1
				c-0.1,0-0.2-0.1-0.2-0.2c0-0.1,0.1-0.2,0.2-0.2h1c0.1,0,0.2,0.1,0.2,0.2C170.8,119.2,170.7,119.3,170.6,119.3z M171.4,110.1h-1
				c-0.1,0-0.2-0.1-0.2-0.2c0-0.1,0.1-0.2,0.2-0.2h1c0.1,0,0.2,0.1,0.2,0.2C171.7,110,171.6,110.1,171.4,110.1z M173,128.5h-1
				c-0.1,0-0.2-0.1-0.2-0.2c0-0.1,0.1-0.2,0.2-0.2h1c0.1,0,0.2,0.1,0.2,0.2C173.3,128.4,173.1,128.5,173,128.5z M174.6,119.3h-1
				c-0.1,0-0.2-0.1-0.2-0.2c0-0.1,0.1-0.2,0.2-0.2h1c0.1,0,0.2,0.1,0.2,0.2C174.8,119.2,174.7,119.3,174.6,119.3z M191.6,128h1
				c0.1,0,0.2,0.1,0.2,0.2c0,0.1-0.1,0.2-0.2,0.2h-1c-0.1,0-0.2-0.1-0.2-0.2C191.3,128.1,191.5,128,191.6,128z M187.7,128h1
				c0.1,0,0.2,0.1,0.2,0.2c0,0.1-0.1,0.2-0.2,0.2h-1c-0.1,0-0.2-0.1-0.2-0.2C187.4,128.1,187.5,128,187.7,128z M183.8,128h1
				c0.1,0,0.2,0.1,0.2,0.2c0,0.1-0.1,0.2-0.2,0.2h-1c-0.1,0-0.2-0.1-0.2-0.2C183.5,128.1,183.6,128,183.8,128z M181.5,118.8h1
				c0.1,0,0.2,0.1,0.2,0.2c0,0.1-0.1,0.2-0.2,0.2h-1c-0.1,0-0.2-0.1-0.2-0.2C181.3,118.9,181.4,118.8,181.5,118.8z M181.2,137.4
				c0,0.1-0.1,0.2-0.2,0.2h-1c-0.1,0-0.2-0.1-0.2-0.2s0.1-0.2,0.2-0.2h1C181.1,137.2,181.2,137.3,181.2,137.4z M179.9,128h1
				c0.1,0,0.2,0.1,0.2,0.2c0,0.1-0.1,0.2-0.2,0.2h-1c-0.1,0-0.2-0.1-0.2-0.2C179.6,128.1,179.7,128,179.9,128z M177.5,118.8h1
				c0.1,0,0.2,0.1,0.2,0.2c0,0.1-0.1,0.2-0.2,0.2h-1c-0.1,0-0.2-0.1-0.2-0.2C177.3,118.9,177.4,118.8,177.5,118.8z M175.9,128h1
				c0.1,0,0.2,0.1,0.2,0.2c0,0.1-0.1,0.2-0.2,0.2h-1c-0.1,0-0.2-0.1-0.2-0.2C175.7,128.1,175.8,128,175.9,128z"/>
			<linearGradient id="SVGID_5_" gradientUnits="userSpaceOnUse" x1="181.5667" y1="118.2068" x2="194.9568" y2="93.9506">
				<stop  offset="0" style="stop-color:#000053;stop-opacity:0.5"/>
				<stop  offset="0.1278" style="stop-color:#313174;stop-opacity:0.4361"/>
				<stop  offset="0.3065" style="stop-color:#6F6F9E;stop-opacity:0.3468"/>
				<stop  offset="0.478" style="stop-color:#A2A2C0;stop-opacity:0.261"/>
				<stop  offset="0.6375" style="stop-color:#CACADC;stop-opacity:0.1812"/>
				<stop  offset="0.7825" style="stop-color:#E7E7EF;stop-opacity:0.1087"/>
				<stop  offset="0.9081" style="stop-color:#F9F9FB;stop-opacity:4.596421e-02"/>
				<stop  offset="1" style="stop-color:#FFFFFF;stop-opacity:0"/>
			</linearGradient>
			<path class="st7" d="M180.5,86l-6.1,6.1h0.2c0.1,0,0.2,0.1,0.2,0.2c0,0.1-0.1,0.2-0.2,0.2h-0.7l-5.7,5.7l2.1,2.1h0.3
				c0.1,0,0.2,0.1,0.2,0.2c0,0.1-0.1,0.2-0.1,0.2l8.7,8.7h0.1c0.1,0,0.2,0.1,0.2,0.2c0,0,0,0.1,0,0.1l16.2,16.2l12.4-12.4L180.5,86z
				 M174.6,100.9h-1c-0.1,0-0.2-0.1-0.2-0.2c0-0.1,0.1-0.2,0.2-0.2h1c0.1,0,0.2,0.1,0.2,0.2C174.8,100.8,174.7,100.9,174.6,100.9z
				 M178.5,100.9h-1c-0.1,0-0.2-0.1-0.2-0.2c0-0.1,0.1-0.2,0.2-0.2h1c0.1,0,0.2,0.1,0.2,0.2C178.8,100.8,178.7,100.9,178.5,100.9z
				 M178.5,92.6h-1c-0.1,0-0.2-0.1-0.2-0.2c0-0.1,0.1-0.2,0.2-0.2h1c0.1,0,0.2,0.1,0.2,0.2C178.8,92.5,178.7,92.6,178.5,92.6z
				 M193.4,100.4h1c0.1,0,0.2,0.1,0.2,0.2c0,0.1-0.1,0.2-0.2,0.2h-1c-0.1,0-0.2-0.1-0.2-0.2C193.1,100.6,193.3,100.4,193.4,100.4z
				 M189.4,100.4h1c0.1,0,0.2,0.1,0.2,0.2c0,0.1-0.1,0.2-0.2,0.2h-1c-0.1,0-0.2-0.1-0.2-0.2C189.2,100.6,189.3,100.4,189.4,100.4z
				 M185.5,92.1h1c0.1,0,0.2,0.1,0.2,0.2c0,0.1-0.1,0.2-0.2,0.2h-1c-0.1,0-0.2-0.1-0.2-0.2C185.2,92.2,185.3,92.1,185.5,92.1z
				 M181.5,92.1h1c0.1,0,0.2,0.1,0.2,0.2c0,0.1-0.1,0.2-0.2,0.2h-1c-0.1,0-0.2-0.1-0.2-0.2C181.3,92.2,181.4,92.1,181.5,92.1z
				 M181.3,100.7c0-0.1,0.1-0.2,0.2-0.2h1c0.1,0,0.2,0.1,0.2,0.2c0,0.1-0.1,0.2-0.2,0.2h-1C181.4,100.9,181.3,100.8,181.3,100.7z
				 M183.7,110.1h-1c-0.1,0-0.2-0.1-0.2-0.2c0-0.1,0.1-0.2,0.2-0.2h1c0.1,0,0.2,0.1,0.2,0.2C183.9,110,183.8,110.1,183.7,110.1z
				 M185.5,100.9c-0.1,0-0.2-0.1-0.2-0.2c0-0.1,0.1-0.2,0.2-0.2h1c0.1,0,0.2,0.1,0.2,0.2c0,0.1-0.1,0.2-0.2,0.2H185.5z M187.7,110.1
				h-1c-0.1,0-0.2-0.1-0.2-0.2c0-0.1,0.1-0.2,0.2-0.2h1c0.1,0,0.2,0.1,0.2,0.2C188,110,187.9,110.1,187.7,110.1z M190.4,119.3h-1
				c-0.1,0-0.2-0.1-0.2-0.2c0-0.1,0.1-0.2,0.2-0.2h1c0.1,0,0.2,0.1,0.2,0.2C190.7,119.2,190.6,119.3,190.4,119.3z M191.8,110.1h-1
				c-0.1,0-0.2-0.1-0.2-0.2c0-0.1,0.1-0.2,0.2-0.2h1c0.1,0,0.2,0.1,0.2,0.2C192.1,110,191.9,110.1,191.8,110.1z M194.4,119.3h-1
				c-0.1,0-0.2-0.1-0.2-0.2c0-0.1,0.1-0.2,0.2-0.2h1c0.1,0,0.2,0.1,0.2,0.2C194.6,119.2,194.5,119.3,194.4,119.3z M195.9,110.1h-1
				c-0.1,0-0.2-0.1-0.2-0.2c0-0.1,0.1-0.2,0.2-0.2h1c0.1,0,0.2,0.1,0.2,0.2C196.1,110,196,110.1,195.9,110.1z M198.4,119.3h-1
				c-0.1,0-0.2-0.1-0.2-0.2c0-0.1,0.1-0.2,0.2-0.2h1c0.1,0,0.2,0.1,0.2,0.2C198.6,119.2,198.5,119.3,198.4,119.3z M200,110.1h-1
				c-0.1,0-0.2-0.1-0.2-0.2c0-0.1,0.1-0.2,0.2-0.2h1c0.1,0,0.2,0.1,0.2,0.2C200.2,110,200.1,110.1,200,110.1z M202.3,119.3h-1
				c-0.1,0-0.2-0.1-0.2-0.2c0-0.1,0.1-0.2,0.2-0.2h1c0.1,0,0.2,0.1,0.2,0.2C202.6,119.2,202.5,119.3,202.3,119.3z M204,110.1h-1
				c-0.1,0-0.2-0.1-0.2-0.2c0-0.1,0.1-0.2,0.2-0.2h1c0.1,0,0.2,0.1,0.2,0.2C204.3,110,204.2,110.1,204,110.1z"/>
		</g>
	</g>
	<g>
		<rect x="49.1" y="101.4" class="st2" width="35.6" height="14"/>
		<rect x="49.1" y="84.7" class="st2" width="35.6" height="14.8"/>
		<rect x="86.6" y="84.7" class="st2" width="35.6" height="14.8"/>
		<rect x="49.1" y="134.1" class="st2" width="35.6" height="14"/>
		<rect x="49.1" y="117.4" class="st2" width="35.6" height="14.7"/>
		<rect x="86.6" y="117.4" class="st2" width="35.6" height="14.7"/>
		<rect x="86.6" y="101.4" class="st2" width="35.6" height="14"/>
		<rect x="86.6" y="134.1" class="st2" width="35.6" height="14"/>
	</g>
	<g>
		<rect x="59.3" y="91.6" class="st8" width="12.3" height="3"/>
		<rect x="98.1" y="91.6" class="st8" width="12.3" height="3"/>
		<rect x="59.3" y="107.3" class="st8" width="12.3" height="3"/>
		<rect x="98.1" y="107.3" class="st8" width="12.3" height="3"/>
		<rect x="59.3" y="122.9" class="st8" width="12.3" height="3"/>
		<rect x="98.1" y="122.9" class="st8" width="12.3" height="3"/>
		<rect x="59.3" y="139.7" class="st8" width="12.3" height="3"/>
		<rect x="98.1" y="139.7" class="st8" width="12.3" height="3"/>
	</g>
</g>
</svg>
