<?xml version="1.0" encoding="utf-8"?>
<!-- Generator: Adobe Illustrator 23.0.3, SVG Export Plug-In . SVG Version: 6.00 Build 0)  -->
<svg version="1.1" id="Layer_1" xmlns="http://www.w3.org/2000/svg" xmlns:xlink="http://www.w3.org/1999/xlink" x="0px" y="0px"
	 viewBox="0 0 209.2 207.7" style="enable-background:new 0 0 209.2 207.7;" xml:space="preserve">
<style type="text/css">
	.st0{fill:#FFFFFF;}
	.st1{fill:#E17000;}
	.st2{fill:url(#SVGID_1_);}
	.st3{fill:url(#SVGID_2_);}
	.st4{fill:#000054;}
	.st5{fill:#000053;}
</style>
<g>
	<path class="st0" d="M89.8,81.5v6.6c0,0.7-0.5,1.2-1.2,1.2c-0.6,0-1.2-0.5-1.2-1.2v-6.6c0-0.7,0.5-1.2,1.2-1.2
		C89.3,80.3,89.8,80.8,89.8,81.5z M78.2,86.2c-0.4-0.5-1.1-0.6-1.6-0.2c-0.5,0.4-0.6,1.1-0.3,1.6l3.8,5.2c0.4,0.5,1.1,0.6,1.6,0.2
		c0.5-0.4,0.6-1.1,0.3-1.6L78.2,86.2z"/>
</g>
<g>
	<g>
		<g>
			<path class="st1" d="M90.4,4.3v20.2c0,2-1.1,3.6-2.4,3.6c-1.3,0-2.4-1.6-2.4-3.6V4.3c0-2,1.1-3.6,2.4-3.6
				C89.3,0.7,90.4,2.3,90.4,4.3z M66.8,21.9c-0.8-1-2.3-1.3-3.3-0.5c-1,0.8-1.3,2.2-0.5,3.3l7.7,10.6c0.8,1,2.3,1.3,3.3,0.5
				c1-0.8,1.3-2.2,0.5-3.3L66.8,21.9z M103.5,36.2c0.8,0,1.5-0.4,1.9-1l7.7-10.6c0.8-1.1,0.5-2.5-0.6-3.3c-1-0.7-2.5-0.5-3.3,0.5
				l-7.7,10.6c-0.8,1.1-0.5,2.5,0.5,3.3C102.5,36.1,103,36.2,103.5,36.2L103.5,36.2z"/>
		</g>
		<g>
			<path class="st1" d="M205.6,127.2h-20.2c-2,0-3.6-1.1-3.6-2.4c0-1.3,1.6-2.4,3.6-2.4h20.2c2,0,3.6,1.1,3.6,2.4
				C209.2,126.2,207.6,127.2,205.6,127.2z M188,103.6c1-0.8,1.3-2.3,0.5-3.3c-0.8-1-2.2-1.3-3.3-0.5l-10.6,7.7
				c-1,0.8-1.3,2.3-0.5,3.3c0.8,1,2.2,1.3,3.3,0.5L188,103.6z M173.7,140.3c0,0.8,0.4,1.5,1,1.9l10.6,7.7c1.1,0.8,2.5,0.5,3.3-0.6
				c0.7-1,0.5-2.5-0.5-3.3l-10.6-7.7c-1.1-0.8-2.5-0.5-3.3,0.5C173.8,139.3,173.6,139.8,173.7,140.3L173.7,140.3z"/>
		</g>
		<g>
			<g>
				<g>
					<path class="st1" d="M54.4,51.7c-22.7,0-41.2,18.4-41.2,41.2c0,11.2,4.4,21.3,11.6,28.7l-7.4,16.7l19-8.3
						c5.4,2.6,11.5,4.1,17.9,4.1c22.7,0,41.2-18.4,41.2-41.2C95.6,70.1,77.2,51.7,54.4,51.7z"/>
				</g>
				<g>
					<path class="st1" d="M54.4,51.7c-22.7,0-41.2,18.4-41.2,41.2c0,11.2,4.4,21.3,11.6,28.7l-7.4,16.7l19-8.3
						c5.4,2.6,11.5,4.1,17.9,4.1c22.7,0,41.2-18.4,41.2-41.2C95.6,70.1,77.2,51.7,54.4,51.7z"/>
				</g>
			</g>
			<linearGradient id="SVGID_1_" gradientUnits="userSpaceOnUse" x1="13.2691" y1="94.9939" x2="95.6279" y2="94.9939">
				<stop  offset="0" style="stop-color:#E60028"/>
				<stop  offset="0.1054" style="stop-color:#E60028;stop-opacity:0.8946"/>
				<stop  offset="1" style="stop-color:#E60028;stop-opacity:0"/>
			</linearGradient>
			<path class="st2" d="M54.4,51.7c-22.7,0-41.2,18.4-41.2,41.2c0,11.2,4.4,21.3,11.6,28.7l-7.4,16.7l19-8.3
				c5.4,2.6,11.5,4.1,17.9,4.1c22.7,0,41.2-18.4,41.2-41.2C95.6,70.1,77.2,51.7,54.4,51.7z"/>
			<g>
				<path class="st0" d="M59.1,79.1c-0.1,0-0.3,0-0.4,0"/>
			</g>
			<g>
				<g>
					<path class="st1" d="M126.7,51.5c22.7,0,41.2,18.4,41.2,41.2c0,11.2-4.4,21.3-11.6,28.7l7.4,16.7l-19-8.3
						c-5.4,2.6-11.5,4.1-17.9,4.1c-22.7,0-41.2-18.4-41.2-41.2C85.5,69.9,104,51.5,126.7,51.5z"/>
					<linearGradient id="SVGID_2_" gradientUnits="userSpaceOnUse" x1="85.5422" y1="94.7687" x2="167.901" y2="94.7687">
						<stop  offset="0" style="stop-color:#E60028"/>
						<stop  offset="0.1054" style="stop-color:#E60028;stop-opacity:0.8946"/>
						<stop  offset="1" style="stop-color:#E60028;stop-opacity:0"/>
					</linearGradient>
					<path class="st3" d="M126.7,51.5c22.7,0,41.2,18.4,41.2,41.2c0,11.2-4.4,21.3-11.6,28.7l7.4,16.7l-19-8.3
						c-5.4,2.6-11.5,4.1-17.9,4.1c-22.7,0-41.2-18.4-41.2-41.2C85.5,69.9,104,51.5,126.7,51.5z"/>
				</g>
			</g>
		</g>
		<g>
			<path class="st4" d="M81,145.3L48.5,175c0.7,0.6,1.2,1.2,1.5,2l35.4-10l-2-20.6C82.5,146.2,81.6,145.9,81,145.3z"/>
			<path class="st4" d="M87.6,168.3l1,10.3c1,0.2,1.9,0.6,2.7,1.3l10.5-14.3c-0.2-0.4-0.3-0.8-0.4-1.2L87.6,168.3z"/>
			<path class="st4" d="M133.5,164.2l-16.3,28c0.2,0.5,0.4,0.9,0.5,1.5c0.5,3-1.4,5.8-4.4,6.3c-3,0.5-5.8-1.4-6.3-4.4
				c-0.5-2.6,1-5.1,3.4-6.1l-3.7-21.1c-1.3,0-2.6-0.5-3.6-1.3l-10.5,14.3c0.2,0.5,0.4,1,0.5,1.5c0.5,3-1.4,5.8-4.4,6.4
				c-3,0.5-5.8-1.4-6.4-4.4c-0.5-2.9,1.4-5.8,4.3-6.4l-1-9.8l-35.2,10c0,0.6,0,1.3-0.2,1.9l14.3,9.8c0.5-0.4,1.1-0.8,1.8-0.9
				c2-0.4,4,1,4.4,3c0.4,2-1,4-3,4.4c-2,0.4-4-1-4.4-3c-0.1-0.6-0.1-1.2,0.1-1.8l-14.1-9.7c-1.8,2.3-5.1,2.9-7.5,1.2
				c-2.5-1.7-3.1-5.2-1.4-7.7c0.6-0.9,1.4-1.5,2.3-1.9l-3-24.6c-1.2,0.1-2.3-0.2-3.3-1c-0.4-0.3-0.6-0.6-0.9-1l-14.9,5.1
				c0,0.8-0.3,1.5-0.8,2.1c-1.2,1.6-3.5,1.9-5.1,0.6c-1.6-1.2-1.9-3.5-0.6-5.1c1.2-1.6,3.5-1.9,5.1-0.6c0.4,0.3,0.6,0.6,0.9,1
				l14.6-5c-0.2-1.3,0-2.7,0.9-3.8c1.6-2,4.6-2.4,6.6-0.8c2,1.6,2.4,4.6,0.8,6.6c-0.4,0.5-0.8,0.9-1.3,1.1l3,24.7
				c0.7,0,1.5,0.1,2.2,0.3l32.9-30.1c-0.3-0.6-0.5-1.3-0.5-2.1c0-2.5,2-4.6,4.6-4.6c2.5,0,4.6,2,4.6,4.6c0,2-1.3,3.6-3,4.3l2,20.3
				l13.8-3.9c0.2-2.4,2-4.4,4.5-4.8c3-0.5,5.8,1.4,6.4,4.4c0.5,2.6-1,5.1-3.4,6.1l3.7,21.1c1.3,0,2.5,0.5,3.5,1.3l16.2-27.8
				c-6.4-6.4-12.8-12.8-19.2-19.2c-3.5-3.5-11.8-11.8-22-22c-8.5,10.7-21.6,17.6-36.3,17.6c-6.3,0-12.3-1.2-18-3.6l-16.9,7.4
				c-0.7,0.3-1.4,0.4-2,0.4c-1.3,0-2.6-0.5-3.6-1.5c-1.5-1.5-1.9-3.7-1.1-5.6l6.1-13.8c-7-8.3-10.7-18.7-10.7-29.6
				c0-4.7,0.7-9.3,2-13.5c-9.7,19-12.9,42.2-5.7,65.9c9.1,30,34.8,54.7,68.7,60.7c14.1,2.5,28.1,1.6,41.8-2.7
				c13.7-4.3,25.6-11.6,35.8-21.7C145,175.8,139.2,170,133.5,164.2z"/>
		</g>
		<path class="st5" d="M169.8,151.1c-1.9-1.5-4.7-1.2-6.2,0.7c-0.5,0.6-0.8,1.3-0.9,2.1l-18.6-2.2c0.2-1.5-0.4-3-1.6-3.9
			c-1.9-1.5-4.7-1.2-6.2,0.7c-1.5,1.9-1.2,4.6,0.6,6.1l-5,8.6l1.8,1l5-8.7c0.7,0.2,1.4,0.2,2.1,0l8,26.6l1.9-0.6l-8.1-27
			c0.2-0.2,0.4-0.4,0.6-0.6c0.1-0.1,0.1-0.2,0.2-0.3l19.5,2.3c0.3,0.8,0.7,1.5,1.5,2.1c1.9,1.5,4.7,1.2,6.2-0.7
			C172.1,155.4,171.8,152.6,169.8,151.1z"/>
	</g>
	<g>
		<path class="st0" d="M87.9,100.4l-16.7-2.1l-5.1-8l-3.8-0.6c0,0,0,0-0.1,0l-0.1,0l0,0L46,87.9c-0.1,0-0.2,0-0.3,0l0,0l-0.2,0
			c0,0,0,0,0,0l-10.3,1.6c-1.6,0.2-3.2,1.4-3.9,2.9l-4.9,10.1c-1,2-0.2,4.4,1.8,5.4c2,1,4.4,0.2,5.4-1.8l4.1-8.4l5.1-0.9l-1.9,16.5
			c-0.1,1.1,0.7,2.1,1.8,2.2l16.2,1.8c1.1,0.1,2.1-0.7,2.2-1.8l1.7-14.7l1.4,2.6c0.7,1.4,2.4,2.5,4,2.7l18.5,2.3
			c2.2,0.3,4.2-1.3,4.5-3.5C91.7,102.6,90.2,100.6,87.9,100.4z"/>
		<path class="st0" d="M55.1,86.9c4.5,0,8.1-3.6,8.1-8.1c0-4.5-3.6-8.1-8.1-8.1S47,74.4,47,78.8C47,83.3,50.6,86.9,55.1,86.9z"/>
	</g>
	<g>
		<path class="st0" d="M118.9,85.8l11.7,1.2c1.5,0.2,3-1.4,3.2-3.4l1-9.9c0.2-2-0.9-3.8-2.4-4l-11.7-1.2c-1.5-0.2-3,1.4-3.2,3.4
			l-1,9.9C116.2,83.8,117.3,85.6,118.9,85.8z"/>
		
			<rect x="121.9" y="66.6" transform="matrix(0.1005 -0.9949 0.9949 0.1005 45.5351 186.5963)" class="st0" width="8.1" height="3"/>
		<path class="st0" d="M126.2,67.1c-3.2-0.3-5.5-3.1-5.1-6.3c0.3-3.2,3.1-5.5,6.3-5.1c3.2,0.3,5.5,3.1,5.1,6.3
			C132.2,65.1,129.4,67.4,126.2,67.1z M127.1,58.7c-1.5-0.1-2.8,0.9-3,2.4c-0.1,1.5,0.9,2.8,2.4,3c1.5,0.1,2.8-0.9,3-2.4
			S128.6,58.9,127.1,58.7z"/>
		<path class="st0" d="M155.3,102.4l-4.9-10.1c-0.7-1.4-2.3-2.6-3.9-2.9l-10.3-1.6c0,0,0,0,0,0l-0.2,0l0,0c-0.1,0-0.2,0-0.3,0
			l-16.1,1.8l0,0l-0.1,0c0,0,0,0-0.1,0l-3.8,0.6l-5.1,8L95,100.4c-2.2,0.3-3.8,2.2-3.5,4.5c0.3,2.2,2.3,3.8,4.5,3.5l17.4-2.3
			c1.6-0.2,3.3-1.3,4-2.7l1.4-2.6l1.7,14.7c0.1,1.1,1.1,1.9,2.2,1.8l16.2-1.8c1.1-0.1,1.9-1.1,1.8-2.2l-1.9-16.5l5.1,0.9l4.1,8.4
			c1,2,3.4,2.8,5.4,1.8C155.5,106.8,156.3,104.4,155.3,102.4z M122.1,98.3c-1.1,0.1-2-0.7-2.2-1.7c-0.1-1.1,0.7-2,1.7-2.2
			c1.1-0.1,2,0.7,2.2,1.7C123.9,97.2,123.2,98.2,122.1,98.3z M128.9,97.6c-1.1,0.1-2-0.7-2.2-1.7c-0.1-1.1,0.7-2,1.7-2.2
			c1.1-0.1,2,0.7,2.2,1.7C130.7,96.5,129.9,97.5,128.9,97.6z M135.4,96.9c-1.1,0.1-2-0.7-2.2-1.7c-0.1-1.1,0.7-2,1.7-2.2
			c1.1-0.1,2,0.7,2.2,1.7C137.3,95.8,136.5,96.8,135.4,96.9z"/>
	</g>
	<g>
		<path class="st0" d="M91.8,82.5v6.6c0,0.7-0.5,1.2-1.2,1.2c-0.6,0-1.2-0.5-1.2-1.2v-6.6c0-0.7,0.5-1.2,1.2-1.2
			C91.3,81.3,91.8,81.8,91.8,82.5z M80.3,87.2c-0.4-0.5-1.1-0.6-1.6-0.2c-0.5,0.4-0.6,1.1-0.3,1.6l3.8,5.2c0.4,0.5,1.1,0.6,1.6,0.2
			c0.5-0.4,0.6-1.1,0.3-1.6L80.3,87.2z M98.2,94.3c0.4,0,0.7-0.2,0.9-0.5l3.8-5.2c0.4-0.5,0.2-1.2-0.3-1.6c-0.5-0.4-1.2-0.3-1.6,0.3
			l-3.8,5.2c-0.4,0.5-0.3,1.2,0.3,1.6C97.7,94.2,98,94.3,98.2,94.3L98.2,94.3z"/>
	</g>
</g>
</svg>
