<?xml version="1.0" encoding="utf-8"?>
<!-- Generator: Adobe Illustrator 22.1.0, SVG Export Plug-In . SVG Version: 6.00 Build 0)  -->
<svg version="1.1" id="Layer_1" xmlns="http://www.w3.org/2000/svg" xmlns:xlink="http://www.w3.org/1999/xlink" x="0px" y="0px"
	 viewBox="0 0 200 200" style="enable-background:new 0 0 200 200;" xml:space="preserve">
<style type="text/css">
	.st0{fill:#000054;}
	.st1{fill:#E60028;}
	.st2{fill:#E17000;}
	.st3{fill:url(#SVGID_1_);}
	.st4{fill:url(#SVGID_2_);}
	.st5{fill:url(#SVGID_3_);}
	.st6{fill:url(#SVGID_4_);}
	.st7{fill:url(#SVGID_5_);}
	.st8{fill:url(#SVGID_6_);}
</style>
<g>
	<g>
		<g>
			<path class="st0" d="M3.7,89.2c-4.6,15-5.2,31.9,0,49c8.6,28.3,32.9,51.8,65,57.4c4.9,0.9,9.8,1.3,14.7,1.3
				c8.1,0,16.2-1.2,24.2-3.7c-0.7-1.1-1.3-2.3-1.9-3.4c-7.3,2.2-14.9,3.3-22.3,3.3c-4.6,0-9.3-0.4-14-1.2
				c-14.7-2.6-28.3-9.3-39.4-19.3c-10.7-9.7-18.5-21.9-22.6-35.5c-4.6-15.2-4.6-31-0.4-45.6c-1.2-0.6-2.3-1.2-3.5-1.8"/>
			<path class="st0" d="M107.5,193.3C107.5,193.3,107.5,193.3,107.5,193.3"/>
		</g>
		<g>
			<path class="st0" d="M39.3,155.2H11c1.8,3.1,3.8,6.1,5.9,9h12.8c1.7,0,3.1,1.4,3.1,3.1v12.8c3,2.3,6.2,4.4,9.5,6.2v-28
				C42.4,156.6,41,155.2,39.3,155.2z"/>
			<path class="st0" d="M134,172.2c0,2.2,0.9,4.2,2.3,5.7c2-1.6,3.9-3.3,5.7-5.1c-2-2-3.9-3.9-5.9-5.9
				C134.8,168.2,134,170.1,134,172.2z"/>
			<path class="st0" d="M15.4,65.6C15.4,65.6,15.4,65.6,15.4,65.6C15.4,65.6,15.4,65.5,15.4,65.6C15.4,65.5,15.4,65.6,15.4,65.6z"/>
			<path class="st0" d="M24.3,76.6c5.9,0,11.3-2.4,15.2-6.3c-2-2-3.8-3.8-5.5-5.5c-2.5,2.5-5.9,4-9.7,4c-3.4,0-6.5-1.2-8.9-3.3
				c-1.5,2.1-2.9,4.3-4.2,6.6C14.8,75,19.4,76.6,24.3,76.6z"/>
			<path class="st0" d="M33.6,64.3c0.2,0.2,0.3,0.3,0.5,0.5v0C33.9,64.6,33.7,64.5,33.6,64.3z"/>
			<path class="st0" d="M15.4,65.5c0.5-0.8,1.1-1.5,1.7-2.3C16.5,64,16,64.8,15.4,65.5z"/>
			<path class="st0" d="M18.9,61c1.4,1.3,3.3,2.1,5.4,2.1c2.2,0,4.2-0.9,5.7-2.3c-2.5-2.5-4.4-4.4-5.7-5.7
				C22.4,56.9,20.6,58.9,18.9,61z"/>
			<path class="st0" d="M30,60.7c0.1,0.1,0.2,0.2,0.2,0.2C30.2,60.9,30.1,60.8,30,60.7L30,60.7z"/>
			<path class="st0" d="M18.8,61.1C18.9,61.1,18.9,61,18.8,61.1c0.1-0.1,0.1-0.1,0.1-0.1C18.9,61,18.9,61.1,18.8,61.1z"/>
			<path class="st0" d="M18.8,61.1c-0.6,0.7-1.1,1.4-1.7,2.1C17.7,62.5,18.3,61.8,18.8,61.1z"/>
			<path class="st0" d="M125.1,185.7c-0.8,0.5-1.6,0.9-2.4,1.4C123.5,186.6,124.3,186.1,125.1,185.7z"/>
			<path class="st0" d="M120.4,172.2c0,5.1,1.8,9.8,4.7,13.5c2.3-1.3,4.4-2.8,6.6-4.3c-2.2-2.4-3.5-5.7-3.5-9.2c0-3.7,1.5-7,3.8-9.5
				c1.4,1.4,2.7,2.7,4.1,4.1c-3.2-3.2-6.4-6.4-9.6-9.6C122.7,161.1,120.4,166.4,120.4,172.2z"/>
			<path class="st0" d="M125.2,185.6C125.2,185.6,125.2,185.6,125.2,185.6C125.2,185.6,125.1,185.7,125.2,185.6
				C125.1,185.7,125.2,185.6,125.2,185.6z"/>
			<path class="st0" d="M77.8,133c0,2.6,2.2,4.8,4.8,4.8h6.3c2.6,0,4.8-2.2,4.8-4.8v-8.6c-0.6-0.6-1.3-1.3-1.9-1.9H77.8V133z"/>
			<path class="st0" d="M3.5,89.7C3.5,89.7,3.5,89.7,3.5,89.7c0.3-0.9,0.6-1.9,0.9-2.8C4.1,87.9,3.8,88.8,3.5,89.7z"/>
			<path class="st0" d="M88.8,142.5h-6.3c-5.3,0-9.6-4.3-9.6-9.6v-10.6h-6.4h-4.8v-4.8V93.2c0-0.2,0-0.5,0.1-0.7
				C55.4,86.1,49,79.7,43.4,74.1c0.1,0.1,0.2,0.2,0.3,0.3c-4.9,4.9-11.8,8-19.3,8c-5.9,0-11.4-1.9-15.9-5.1c-1.1,2.2-2.1,4.5-3,6.9
				c5.4,3.5,11.9,5.6,18.9,5.6c9.6,0,18.2-3.9,24.5-10.2c1.3,1.3,2.7,2.7,4.1,4.1C45.6,91,35.5,95.5,24.3,95.5
				c-7.6,0-14.7-2.1-20.8-5.8c-4.5,14.9-5,31.6,0.2,48.5c1.4,4.7,3.3,9.2,5.5,13.6c0.1,0,0.3,0,0.4,0h29.7c3.6,0,6.5,2.9,6.5,6.5
				V188c0,0,0,0.1,0,0.1c7,3.6,14.7,6.2,22.9,7.6c13.2,2.3,26.1,1.5,38.9-2.4c-3.8-6.2-6-13.4-6-21.2c0-11,4.4-21,11.6-28.3
				c-2.4-2.4-4.8-4.8-7.1-7.1c-1.6-1.6-4.2-4.2-7.6-7.6v3.9C98.4,138.2,94.1,142.5,88.8,142.5z M13.5,141.9h-3.4v-28.3h3.4V141.9z
				 M26.3,141.9h-3.4v-28.3h3.4V141.9z M38.7,141.9h-3.4v-28.3h3.4V141.9z M83.9,187.4H55.7V184h28.3V187.4z M83.9,174.7H55.7v-3.4
				h28.3V174.7z M83.9,162.2H55.7v-3.4h28.3V162.2z"/>
			<path class="st0" d="M86.9,117.6c-6.2-6.2-13.3-13.2-20.4-20.3v20.3H86.9z"/>
			<path class="st0" d="M8.4,77.3C8.4,77.3,8.4,77.3,8.4,77.3c0.4-0.9,0.9-1.7,1.3-2.6C9.3,75.5,8.9,76.4,8.4,77.3z"/>
			<path class="st0" d="M4.4,86.9c0.3-0.9,0.7-1.8,1-2.8c0,0,0,0,0,0C5.1,85.1,4.8,86,4.4,86.9z"/>
			<path class="st0" d="M117.2,147.9c-6.1,6.3-9.9,14.8-9.9,24.3c0,7.1,2.2,13.7,5.8,19.2c2.4-0.9,4.7-1.9,6.9-3
				c-3.4-4.5-5.4-10.2-5.4-16.2c0-7.4,3-14.1,7.8-19.1c-2.7-2.7-5.3-5.3-8-8C115.4,146,116.3,147,117.2,147.9z"/>
			<path class="st0" d="M113.1,191.4C113.1,191.4,113.1,191.4,113.1,191.4c-0.8,0.3-1.6,0.6-2.4,0.9
				C111.5,192,112.3,191.7,113.1,191.4z"/>
			<path class="st0" d="M122.6,187.1c-0.8,0.5-1.7,0.9-2.6,1.3c0,0,0,0,0,0C120.9,188,121.7,187.5,122.6,187.1z"/>
			<path class="st0" d="M108.1,193.2c-0.2,0.1-0.4,0.1-0.6,0.2v0C107.7,193.3,107.9,193.2,108.1,193.2z"/>
			<path class="st0" d="M122.4,153.1L122.4,153.1c1.4,1.4,2.7,2.7,4.1,4.1l0,0C125.2,155.8,123.8,154.5,122.4,153.1z"/>
			<path class="st0" d="M39.6,70.3L39.6,70.3c0.6,0.6,1.1,1.1,1.7,1.7C40.7,71.5,40.1,70.9,39.6,70.3z"/>
			<path class="st0" d="M33.6,64.3c-1.2-1.2-2.3-2.3-3.3-3.3C31.3,62,32.4,63.1,33.6,64.3z"/>
		</g>
	</g>
	<g>
		<g>
			<g>
				<path class="st1" d="M59,55.1c0,9.6-3.9,18.2-10.2,24.5l4.1,4.1c7.3-7.3,11.9-17.4,11.9-28.6c0-11-4.5-21.1-11.7-28.4l-4.1,4.1
					C55.2,37,59,45.6,59,55.1z"/>
				<path class="st1" d="M45.9,55.1c0,5.9-2.4,11.3-6.3,15.2l4.1,4.1c4.9-4.9,8-11.8,8-19.3c0-7.4-3-14.2-7.8-19.1L39.8,40
					C43.6,43.9,45.9,49.2,45.9,55.1z"/>
				<path class="st1" d="M32.4,55.1c0,2.2-0.9,4.2-2.3,5.7l4.1,4.1c2.5-2.5,4-5.9,4-9.7c0-3.7-1.5-7-3.8-9.5l-4.1,4.1
					C31.5,51,32.4,53,32.4,55.1z"/>
			</g>
			<g>
				<path class="st1" d="M82.2,26.8c-8,0-15.2-3.2-20.5-8.5l-3.4,3.4c6.1,6.1,14.6,9.9,23.9,9.9c9.2,0,17.6-3.7,23.7-9.7l-3.4-3.4
					C97.3,23.6,90.1,26.8,82.2,26.8z"/>
				<path class="st1" d="M82.2,15.8c-5,0-9.5-2-12.7-5.3l-3.4,3.4c4.1,4.1,9.8,6.7,16.1,6.7c6.2,0,11.8-2.5,15.9-6.5l-3.4-3.4
					C91.5,13.9,87.1,15.8,82.2,15.8z"/>
				<path class="st1" d="M82.2,4.5c-1.8,0-3.5-0.7-4.7-2L74.1,6c2.1,2.1,5,3.4,8.1,3.4c3.1,0,5.9-1.2,7.9-3.2l-3.4-3.4
					C85.6,3.8,84,4.5,82.2,4.5z"/>
			</g>
		</g>
	</g>
	<g>
		<g>
			<g>
				<path class="st2" d="M93.6,133c0,2.6-2.2,4.8-4.8,4.8l0,0C91.5,137.7,93.6,135.6,93.6,133v-10.6l0,0V133z"/>
				<path class="st2" d="M93.6,133v-10.6H77.8V133c0,2.6,2.2,4.8,4.8,4.8h6.3C91.5,137.7,93.6,135.6,93.6,133z"/>
				<path class="st2" d="M160.8,133v-10.6H145V133c0,2.6,2.2,4.8,4.8,4.8h6.3C158.7,137.7,160.8,135.6,160.8,133z"/>
				<path class="st2" d="M160.8,133c0,2.6-2.2,4.8-4.8,4.8l0,0C158.7,137.7,160.8,135.6,160.8,133v-10.6l0,0V133z"/>
				<path class="st2" d="M145,133v-10.6l0,0V133c0,2.6,2.2,4.8,4.8,4.8l0,0C147.1,137.7,145,135.6,145,133z"/>
			</g>
			<path class="st2" d="M168.6,89.2l-6.9-2.8l-6.9-22.9c-0.6-1.8-2.2-3.1-4.2-3.1H87.2c-1.9,0-3.6,1.3-4.2,3.1l-6.9,22.9l-6.9,2.8
				c-1.6,0.7-2.7,2.3-2.7,4v24.4h104.7V93.2C171.3,91.4,170.2,89.8,168.6,89.2z M90.9,67.7h56.8l5.2,18.3H85.7L90.9,67.7z
				 M85.7,109.3c-3.5,0-6.3-2.8-6.3-6.3c0-3.5,2.8-6.3,6.3-6.3c3.5,0,6.3,2.8,6.3,6.3C92,106.5,89.2,109.3,85.7,109.3z M152.9,109.3
				c-3.5,0-6.3-2.8-6.3-6.3c0-3.5,2.8-6.3,6.3-6.3s6.3,2.8,6.3,6.3C159.2,106.5,156.4,109.3,152.9,109.3z"/>
		</g>
	</g>
	<g>
		<path class="st1" d="M141.9,137.6c10,0,19,4.2,25.3,11l4.1-4.1c-7.4-7.8-17.8-12.7-29.4-12.7c-11.2,0-21.3,4.6-28.7,11.9l4.1,4.1
			C123.6,141.5,132.3,137.6,141.9,137.6z"/>
		<path class="st1" d="M141.9,150.7c6.4,0,12.1,2.8,16,7.2l4.1-4.1c-5-5.4-12.2-8.8-20.1-8.8c-7.6,0-14.4,3.1-19.4,8.1l4.1,4.1
			C130.5,153.1,135.9,150.7,141.9,150.7z"/>
		<path class="st1" d="M141.9,164.2c2.6,0,5,1.3,6.4,3.2l4.1-4.1c-2.5-3-6.3-4.9-10.5-4.9c-3.8,0-7.3,1.6-9.8,4.1l4.1,4.1
			C137.6,165.2,139.7,164.2,141.9,164.2z"/>
	</g>
	<path class="st2" d="M196.5,115.4h-11.3c-1.1,0-2-0.6-2-1.3c0-0.7,0.9-1.3,2-1.3h11.3c1.1,0,2,0.6,2,1.3
		C198.5,114.9,197.6,115.4,196.5,115.4z M186.7,102.3c0.6-0.4,0.7-1.3,0.3-1.8c-0.4-0.6-1.2-0.7-1.8-0.3l-5.9,4.3
		c-0.6,0.4-0.7,1.3-0.3,1.8c0.4,0.6,1.2,0.7,1.8,0.3L186.7,102.3z M178.7,122.7c0,0.4,0.2,0.8,0.5,1.1l5.9,4.3
		c0.6,0.4,1.4,0.3,1.8-0.3c0.4-0.6,0.3-1.4-0.3-1.8l-5.9-4.3c-0.6-0.4-1.4-0.3-1.8,0.3C178.8,122.2,178.7,122.5,178.7,122.7
		L178.7,122.7z"/>
	<path class="st2" d="M80.4,42l4,7.9c0.4,0.8,0.2,1.7-0.5,2c-0.7,0.3-1.5,0-1.9-0.8l-4-7.9c-0.4-0.8-0.2-1.7,0.5-2
		C79.2,40.9,80,41.3,80.4,42z M71.3,54.2c-0.7-0.3-1.5-0.1-1.8,0.6c-0.3,0.7-0.1,1.5,0.6,1.8l6.8,3.5c0.7,0.3,1.5,0.1,1.8-0.6
		c0.3-0.7,0.1-1.5-0.6-1.8L71.3,54.2z M94,52.1c0.4-0.2,0.7-0.6,0.7-1l1.2-7.5c0.1-0.7-0.4-1.4-1.1-1.6c-0.7-0.1-1.4,0.4-1.6,1.1
		L92,50.7c-0.1,0.7,0.4,1.5,1.1,1.6C93.4,52.3,93.7,52.3,94,52.1L94,52.1z"/>
	<g>
		<g>
			<g>
				<g>
					<linearGradient id="SVGID_1_" gradientUnits="userSpaceOnUse" x1="88.8202" y1="130.0691" x2="93.6116" y2="130.0691">
						<stop  offset="0" style="stop-color:#E60028"/>
						<stop  offset="0.1054" style="stop-color:#E60028;stop-opacity:0.8946"/>
						<stop  offset="1" style="stop-color:#E60028;stop-opacity:0"/>
					</linearGradient>
					<path class="st3" d="M93.6,133c0,2.6-2.2,4.8-4.8,4.8l0,0C91.5,137.7,93.6,135.6,93.6,133v-10.6l0,0V133z"/>
				</g>
				<g>
					<linearGradient id="SVGID_2_" gradientUnits="userSpaceOnUse" x1="77.7633" y1="130.0691" x2="93.6116" y2="130.0691">
						<stop  offset="0" style="stop-color:#E60028"/>
						<stop  offset="0.1054" style="stop-color:#E60028;stop-opacity:0.8946"/>
						<stop  offset="1" style="stop-color:#E60028;stop-opacity:0"/>
					</linearGradient>
					<path class="st4" d="M93.6,133v-10.6H77.8V133c0,2.6,2.2,4.8,4.8,4.8h6.3C91.5,137.7,93.6,135.6,93.6,133z"/>
				</g>
				<g>
					<linearGradient id="SVGID_3_" gradientUnits="userSpaceOnUse" x1="144.9655" y1="130.0691" x2="160.8136" y2="130.0691">
						<stop  offset="0" style="stop-color:#E60028"/>
						<stop  offset="0.1054" style="stop-color:#E60028;stop-opacity:0.8946"/>
						<stop  offset="1" style="stop-color:#E60028;stop-opacity:0"/>
					</linearGradient>
					<path class="st5" d="M160.8,133v-10.6H145V133c0,2.6,2.2,4.8,4.8,4.8h6.3C158.7,137.7,160.8,135.6,160.8,133z"/>
				</g>
				<g>
					<linearGradient id="SVGID_4_" gradientUnits="userSpaceOnUse" x1="156.0222" y1="130.0691" x2="160.8136" y2="130.0691">
						<stop  offset="0" style="stop-color:#E60028"/>
						<stop  offset="0.1054" style="stop-color:#E60028;stop-opacity:0.8946"/>
						<stop  offset="1" style="stop-color:#E60028;stop-opacity:0"/>
					</linearGradient>
					<path class="st6" d="M160.8,133c0,2.6-2.2,4.8-4.8,4.8l0,0C158.7,137.7,160.8,135.6,160.8,133v-10.6l0,0V133z"/>
				</g>
				<g>
					<linearGradient id="SVGID_5_" gradientUnits="userSpaceOnUse" x1="144.9655" y1="130.0691" x2="149.757" y2="130.0691">
						<stop  offset="0" style="stop-color:#E60028"/>
						<stop  offset="0.1054" style="stop-color:#E60028;stop-opacity:0.8946"/>
						<stop  offset="1" style="stop-color:#E60028;stop-opacity:0"/>
					</linearGradient>
					<path class="st7" d="M145,133v-10.6l0,0V133c0,2.6,2.2,4.8,4.8,4.8l0,0C147.1,137.7,145,135.6,145,133z"/>
				</g>
			</g>
			<g>
				<linearGradient id="SVGID_6_" gradientUnits="userSpaceOnUse" x1="66.5508" y1="88.9916" x2="171.3001" y2="88.9916">
					<stop  offset="0" style="stop-color:#E60028"/>
					<stop  offset="0.1054" style="stop-color:#E60028;stop-opacity:0.8946"/>
					<stop  offset="1" style="stop-color:#E60028;stop-opacity:0"/>
				</linearGradient>
				<path class="st8" d="M168.6,89.2l-6.9-2.8l-6.9-22.9c-0.6-1.8-2.2-3.1-4.2-3.1H87.2c-1.9,0-3.6,1.3-4.2,3.1l-6.9,22.9l-6.9,2.8
					c-1.6,0.7-2.7,2.3-2.7,4v24.4h104.7V93.2C171.3,91.4,170.2,89.8,168.6,89.2z M90.9,67.7h56.8l5.2,18.3H85.7L90.9,67.7z
					 M85.7,109.3c-3.5,0-6.3-2.8-6.3-6.3c0-3.5,2.8-6.3,6.3-6.3c3.5,0,6.3,2.8,6.3,6.3C92,106.5,89.2,109.3,85.7,109.3z
					 M152.9,109.3c-3.5,0-6.3-2.8-6.3-6.3c0-3.5,2.8-6.3,6.3-6.3s6.3,2.8,6.3,6.3C159.2,106.5,156.4,109.3,152.9,109.3z"/>
			</g>
		</g>
	</g>
</g>
</svg>
