<?xml version="1.0" encoding="utf-8"?>
<!-- Generator: Adobe Illustrator 23.0.1, SVG Export Plug-In . SVG Version: 6.00 Build 0)  -->
<svg version="1.1" id="Layer_1" xmlns="http://www.w3.org/2000/svg" xmlns:xlink="http://www.w3.org/1999/xlink" x="0px" y="0px"
	 viewBox="0 0 100 59.2" style="enable-background:new 0 0 100 59.2;" xml:space="preserve">
<style type="text/css">
	.st0{fill:#FFFFFF;}
</style>
<g>
	<path class="st0" d="M57.5,54.2v0.1c0,0.8-0.3,1.9-1.1,1.9H43.3c-0.8,0-0.8-1.1-0.8-1.9v-0.1h-42v2.3c0,1.4,1.6,2.7,3,2.7h92.7
		c1.4,0,3.3-1.3,3.3-2.7v-2.3H57.5z"/>
	<path class="st0" d="M13.9,53.2h71.8c1.4,0,2.7-1.1,2.7-2.5v-42c0-1.4-1.3-2.5-2.7-2.5H69.5c1,1,1.8,2,2.6,3h12.4v40h-70v-40h14.1
		c0.7-1,1.6-2,2.6-3H13.9c-1.4,0-2.4,1.1-2.4,2.5v42C11.5,52.1,12.5,53.2,13.9,53.2z"/>
	<path class="st0" d="M49.5,0C36.5,0.7,29,10.1,29,21.6c0,11.9,9.6,21.6,21.5,21.6S72,33.5,72,21.6c0-6.9-3.3-13.1-8.4-17.1l1.4-1.8
		l0.7,0.5l1-1.3l-2.6-2l-1,1.3L64,1.9l-1.5,1.9c-3.2-2.2-7-3.5-11-3.7L49.5,0z M50.4,3.6c9.9,0,18,8,18,18s-8,18-18,18
		c-9.9,0-18-8-18-18C32.4,11.7,40.4,3.6,50.4,3.6z"/>
	<path class="st0" d="M50.5,5.5c0,0-0.3,0-0.5,0c-0.2,0-0.5,0-0.5,0v2.7h1V5.5z"/>
	<path class="st0" d="M49.5,37.7c0,0,0.3,0,0.5,0c0.2,0,0.5,0,0.5,0v-2.5h-1V37.7z"/>
	<path class="st0" d="M64.5,22.2h1.7c0,0,0-0.3,0-0.5s0-0.5,0-0.5h-1.7V22.2z"/>
	<path class="st0" d="M36.5,21.2H34c0,0,0,0.3,0,0.5s0,0.5,0,0.5h2.5V21.2z"/>
	<path class="st0" d="M44.1,9.7l-1.4-2.4c-0.4,0.2-0.8,0.4-1.2,0.7l1.4,2.4L44.1,9.7z"/>
	<path class="st0" d="M56.2,33.5l1.4,2.4c0.4-0.2,0.8-0.4,1.2-0.7l-1.4-2.4L56.2,33.5z"/>
	<path class="st0" d="M62,15.5l2.4-1.4c-0.2-0.4-0.4-0.8-0.7-1.2l-2.4,1.4L62,15.5z"/>
	<path class="st0" d="M35.9,29.1c0.2,0.4,0.4,0.8,0.7,1.2l2.4-1.4l-0.7-1.2L35.9,29.1z"/>
	<path class="st0" d="M35.9,14.1l2.4,1.4l0.7-1.2L36.5,13C36.3,13.3,36.1,13.7,35.9,14.1z"/>
	<path class="st0" d="M61.4,28.8l2.4,1.4c0.2-0.4,0.5-0.8,0.7-1.2L62,27.7L61.4,28.8z"/>
	<path class="st0" d="M58.8,8c-0.4-0.2-0.8-0.5-1.2-0.7l-1.4,2.4l1.2,0.7L58.8,8z"/>
	<path class="st0" d="M44.1,33.5l-1.2-0.7l-1.4,2.4c0.4,0.2,0.8,0.5,1.2,0.7L44.1,33.5z"/>
	<path class="st0" d="M49.4,22.8c0.2,0.1,0.4,0.2,0.7,0.2c0.8,0,1.4-0.6,1.4-1.4c0-0.1,0-0.3-0.1-0.4c4.4-3.6,12-10,11.8-10.2
		c-0.2-0.2-8.1,5.9-12.5,9.4c-0.2-0.1-0.4-0.2-0.7-0.2c-0.8,0-1.4,0.6-1.4,1.4c0,0.2,0,0.3,0.1,0.5c-1,0.9-1.5,1.6-1.4,1.7
		C47.6,23.9,48.4,23.5,49.4,22.8z"/>
</g>
</svg>
